<svg width="149" height="144" viewBox="0 0 149 144" fill="none" xmlns="http://www.w3.org/2000/svg">
<path d="M40.0817 4.47949H36.0817V8.47949V13.2183C27.4804 13.9648 20.136 17.183 14.3 23.019C7.64461 29.6744 4.40625 38.2346 4.40625 48.3416C4.40625 56.7081 6.56703 64.0562 11.0828 70.1555C14.9765 75.4146 20.085 79.1853 26.2883 81.471V104.189C22.4652 103.784 17.323 103.109 10.8264 102.15L6.24251 101.474V106.107V124.776V128.199L9.62418 128.728C15.6716 129.674 21.2284 130.347 26.2883 130.741V135.793V139.793H30.2883H40.0817H44.0817V135.793V130.924C52.7534 129.894 60.1064 126.474 65.8998 120.528C72.557 113.696 75.7571 104.831 75.7571 94.3245C75.7571 89.5619 74.9062 84.9723 73.2001 80.5828C71.4917 76.0023 68.6969 71.8813 64.9236 68.2152C61.766 65.0634 58.0688 62.6512 53.8751 60.9713V40.0963C57.1635 40.3668 61.8664 40.7942 68.0094 41.3823L72.3907 41.8018V37.4005V18.9615V15.3143L68.759 14.9785C62.4813 14.3979 57.5139 13.9691 53.8751 13.6949V8.47949V4.47949H49.8751H40.0817ZM45.9357 87.474L45.9607 87.5089L45.9865 87.5432C47.4314 89.4698 48.1704 91.6788 48.1704 94.3245C48.1704 98.3343 47.2745 100.754 46.0793 102.184C45.578 102.783 44.9311 103.319 44.0817 103.75V85.7471C44.8654 86.234 45.4666 86.8197 45.9357 87.474ZM114.246 40.4101L114.253 40.4251L114.259 40.44C114.936 42.0084 115.385 44.3211 115.385 47.5765C115.385 51.4757 114.93 54.491 114.154 56.7418C113.931 57.3725 113.722 57.7626 113.57 57.992C113.418 57.7625 113.209 57.3724 112.986 56.7417C112.211 54.4909 111.755 51.4756 111.755 47.5765C111.755 44.3211 112.204 42.0084 112.881 40.44L112.888 40.4251L112.894 40.4101C113.196 39.6959 113.446 39.4598 113.501 39.4146C113.515 39.4129 113.538 39.4113 113.57 39.4113C113.603 39.4113 113.625 39.4129 113.639 39.4146C113.695 39.4598 113.945 39.6959 114.246 40.4101ZM34.0087 41.4786C34.5551 40.9236 35.2295 40.449 36.0817 40.0951V56.7995C34.9792 56.3252 34.2658 55.7587 33.8106 55.1972C32.7317 53.7977 31.993 51.6945 31.993 48.4946C31.993 44.7625 32.8899 42.663 34.0087 41.4786ZM113.57 13.0487C104.494 13.0487 97.0244 16.21 91.7161 22.7951C86.5975 29.0939 84.1687 36.9464 84.1687 46.0463C84.1687 56.5614 87.2398 65.0653 93.7589 70.9092C86.234 76.9122 82.6385 85.9686 82.6385 97.3849C82.6385 106.823 85.2389 114.932 90.6994 121.39C96.3233 128.042 104.126 131.224 113.57 131.224C123.015 131.224 130.817 128.042 136.441 121.39C141.902 114.932 144.502 106.823 144.502 97.3849C144.502 85.9686 140.907 76.9122 133.382 70.9092C139.901 65.0653 142.972 56.5614 142.972 46.0463C142.972 36.9464 140.543 29.094 135.424 22.7952C130.116 16.2101 122.646 13.0487 113.57 13.0487ZM113.57 84.5526C113.955 84.5526 114.15 84.6431 114.328 84.7811C114.562 84.9634 114.971 85.4056 115.402 86.4129C116.341 88.6017 116.915 91.6863 116.915 95.8547C116.915 99.3581 116.355 101.805 115.517 103.446C115.15 104.164 114.812 104.473 114.597 104.613C114.404 104.739 114.112 104.862 113.57 104.862C113.029 104.862 112.737 104.739 112.543 104.613C112.329 104.473 111.99 104.164 111.624 103.446C110.786 101.805 110.225 99.3581 110.225 95.8547C110.225 91.6863 110.8 88.6017 111.738 86.4129C112.17 85.4056 112.578 84.9634 112.813 84.7812C112.99 84.6431 113.185 84.5526 113.57 84.5526Z" stroke="#E45403" stroke-width="8"/>
</svg>
