<svg width="140" height="124" viewBox="0 0 140 124" fill="none" xmlns="http://www.w3.org/2000/svg">
<circle cx="118" cy="62" r="20" stroke="#E45403" stroke-width="4"/>
<path d="M136.525 88.7088L136.525 89.3929L131.736 89.3929C131.259 89.3929 130.935 89.4143 130.764 89.457C130.4 89.5461 130.108 89.7367 129.887 90.0289C129.666 90.3246 129.556 90.6827 129.556 91.1031C129.556 91.5235 129.666 91.8798 129.887 92.1719C130.108 92.4677 130.4 92.6601 130.764 92.7491C130.935 92.7919 131.259 92.8133 131.736 92.8133L136.525 92.8133L136.525 93.4973L131.736 93.4973C131.234 93.4973 130.862 93.4688 130.619 93.4118C130.117 93.2907 129.707 93.0199 129.39 92.5995C129.073 92.1826 128.914 91.6838 128.914 91.1031C128.914 90.5223 129.073 90.0217 129.39 89.6013C129.707 89.1809 130.117 88.9119 130.619 88.7943C130.862 88.7373 131.234 88.7088 131.736 88.7088L136.525 88.7088ZM136.525 96.3485C136.525 96.5231 136.521 96.6656 136.514 96.7761C136.507 96.8901 136.487 97.0415 136.455 97.2303C136.427 97.4227 136.37 97.6044 136.284 97.7755C136.202 97.95 136.095 98.1121 135.964 98.2618C135.493 98.7927 134.889 99.0581 134.152 99.0581C133.414 99.0581 132.81 98.7927 132.34 98.2618C132.208 98.1121 132.1 97.95 132.014 97.7755C131.932 97.6044 131.875 97.4227 131.843 97.2303C131.815 97.0415 131.797 96.8901 131.79 96.7761C131.783 96.6656 131.779 96.5231 131.779 96.3485L131.779 95.5522L129 95.5522L129 94.8681L136.525 94.8681L136.525 96.3485ZM133.382 98.219C133.617 98.3224 133.874 98.374 134.152 98.374C134.43 98.374 134.685 98.3224 134.916 98.219C135.151 98.1157 135.344 97.9768 135.493 97.8022C135.586 97.6953 135.661 97.5795 135.718 97.4548C135.775 97.3337 135.814 97.2018 135.835 97.0593C135.857 96.9168 135.869 96.801 135.873 96.7119C135.88 96.6229 135.883 96.5017 135.883 96.3485L135.883 95.5522L132.42 95.5522L132.42 96.3485C132.42 96.5017 132.422 96.6229 132.426 96.7119C132.433 96.801 132.447 96.9168 132.468 97.0593C132.49 97.2018 132.529 97.3337 132.586 97.4548C132.643 97.5795 132.718 97.6953 132.81 97.8022C132.96 97.9768 133.151 98.1157 133.382 98.219Z" fill="#E45403"/>
<circle cx="38" cy="62" r="20" stroke="#E45403" stroke-width="4"/>
<path d="M9.5248 53.5827C9.5248 54.73 9.10259 55.5654 8.25819 56.0892C7.93753 56.2923 7.57412 56.4294 7.16795 56.5007C6.76178 56.572 6.29327 56.6076 5.7624 56.6076C5.23153 56.6076 4.76301 56.572 4.35684 56.5007C3.95067 56.4294 3.58726 56.2923 3.2666 56.0892C2.4222 55.5654 2 54.7299 2 53.5827L2 51.7336L9.5248 51.7336L9.5248 53.5827ZM4.42097 55.8166C4.78795 55.8879 5.23509 55.9235 5.7624 55.9235C6.2897 55.9235 6.73684 55.8879 7.10382 55.8166C7.4708 55.7489 7.77542 55.6296 8.0177 55.4586C8.59488 55.0524 8.88348 54.4271 8.88348 53.5827L8.88348 52.4176L2.64132 52.4176L2.64132 53.5827C2.64132 54.4271 2.92991 55.0524 3.5071 55.4586C3.74937 55.6296 4.054 55.7489 4.42097 55.8166ZM7.48327 57.941C7.09491 57.8519 6.52129 57.8074 5.7624 57.8074C5.0035 57.8074 4.42988 57.8519 4.04153 57.941C3.60686 58.0479 3.25057 58.2385 2.97267 58.5128C2.69476 58.7907 2.55581 59.1542 2.55581 59.6031C2.55581 60.052 2.69476 60.4136 2.97266 60.688C3.25057 60.9659 3.60686 61.1583 4.04153 61.2652C4.42988 61.3542 5.0035 61.3988 5.7624 61.3988C6.52129 61.3988 7.09491 61.3542 7.48327 61.2652C7.91794 61.1583 8.27423 60.9659 8.55213 60.688C8.83003 60.4136 8.96899 60.052 8.96899 59.6031C8.96899 59.1542 8.83003 58.7907 8.55213 58.5128C8.27423 58.2385 7.91794 58.0479 7.48327 57.941ZM3.89723 57.273C4.29271 57.1732 4.91443 57.1233 5.7624 57.1233C6.61036 57.1233 7.23208 57.1732 7.62756 57.273C8.20475 57.4155 8.67861 57.6845 9.04915 58.0799C9.42325 58.4754 9.6103 58.9831 9.6103 59.6031C9.6103 60.223 9.42325 60.7307 9.04915 61.1262C8.67861 61.5217 8.20475 61.7907 7.62756 61.9332C7.23208 62.033 6.61036 62.0828 5.7624 62.0828C4.91443 62.0828 4.29271 62.033 3.89723 61.9332C3.32005 61.7907 2.8444 61.5217 2.4703 61.1262C2.09976 60.7307 1.91449 60.223 1.91449 59.6031C1.91449 58.9831 2.09976 58.4754 2.4703 58.0799C2.8444 57.6845 3.32005 57.4155 3.89723 57.273ZM6.78851 64.747L6.78851 65.4097L3.12231 66.3396L3.12231 66.393C4.80042 66.6887 6.93458 66.8366 9.5248 66.8366L9.5248 67.5207C7.01653 67.5207 4.50826 67.2731 2 66.7778L2 66.1151L5.93342 65.105L5.93342 65.0516L2 64.0415L2 63.3788C4.50826 62.8836 7.01653 62.636 9.5248 62.636L9.5248 63.32C6.96309 63.32 4.82892 63.4679 3.12231 63.7636L3.12231 63.8171L6.78851 64.747ZM2 68.8434L2 68.1593L9.5248 68.1593L9.5248 68.8381L3.33608 72.2103L3.33608 72.2638L9.52479 72.2638L9.52479 72.9478L2 72.9478L2 72.2638L8.18872 68.8968L8.18872 68.8434L2 68.8434Z" fill="#E45403"/>
<circle cx="77.5" cy="22" r="20" stroke="#E45403" stroke-width="4"/>
<path d="M42.5 12.4176L50.0248 12.4176L50.0248 13.1017L43.1413 13.1017L43.1413 16.5221L42.5 16.5221L42.5 12.4176ZM50.0248 17.8929L50.0248 21.9973L49.3835 21.9973L49.3835 18.577L46.6044 18.577L46.6044 21.3133L45.9631 21.3133L45.9631 18.577L43.1413 18.577L43.1413 21.9973L42.5 21.9973L42.5 17.8929L50.0248 17.8929ZM50.0248 23.3681L50.0248 27.4726L49.3835 27.4726L49.3835 24.0522L46.5617 24.0522L46.5617 26.7885L45.9204 26.7885L45.9204 24.0522L42.5 24.0522L42.5 23.3681L50.0248 23.3681ZM50.0248 32.9478L49.3835 32.9478L49.3835 30.8956L42.5 30.8956L42.5 30.2115L49.3835 30.2115L49.3835 28.1593L50.0248 28.1593L50.0248 32.9478Z" fill="#E45403"/>
<circle cx="77.5" cy="102" r="20" stroke="#E45403" stroke-width="4"/>
<path d="M46.8823 93.0309C47.1175 93.1342 47.374 93.1859 47.6519 93.1859C47.9298 93.1859 48.1846 93.1342 48.4162 93.0309C48.6513 92.9276 48.8437 92.7886 48.9933 92.614C49.086 92.5072 49.1608 92.3914 49.2178 92.2667C49.2748 92.1455 49.314 92.0137 49.3354 91.8712C49.3568 91.7287 49.3692 91.6129 49.3728 91.5238C49.3799 91.4347 49.3835 91.3136 49.3835 91.1604L49.3835 90.3641L45.9204 90.3641L45.9204 91.1604C45.9204 91.3599 45.9239 91.522 45.9311 91.6467C45.9417 91.7714 45.9774 91.9282 46.0379 92.117C46.1021 92.3094 46.1929 92.4751 46.3105 92.614C46.4601 92.7886 46.6508 92.9276 46.8823 93.0309ZM50.0248 91.1604C50.0248 91.335 50.0212 91.4775 50.0141 91.5879C50.007 91.702 49.9874 91.8534 49.9553 92.0422C49.9268 92.2346 49.8698 92.4163 49.7843 92.5873C49.7024 92.7619 49.5955 92.924 49.4636 93.0737C48.9933 93.6045 48.3894 93.87 47.6519 93.87C46.9144 93.87 46.3105 93.6045 45.8402 93.0737C45.7297 92.949 45.6353 92.81 45.5569 92.6568L42.5 94.0036L42.5 93.2767L45.3378 92.0101C45.2986 91.7964 45.279 91.5131 45.279 91.1604L45.279 90.3641L42.5 90.3641L42.5 89.68L50.0248 89.68L50.0248 91.1604ZM50.0248 98.5756L49.3835 98.5756L49.3835 97.2075L43.1413 97.2075L43.1413 98.5756L42.5 98.5756L42.5 95.1553L43.1413 95.1553L43.1413 96.5234L49.3835 96.5234L49.3835 95.1553L50.0248 95.1553L50.0248 98.5756ZM50.1103 102.859C50.1103 103.372 50.0711 103.908 49.9927 104.468L49.3514 104.468C49.4298 103.883 49.469 103.347 49.469 102.859C49.469 102.264 49.3318 101.785 49.0575 101.421C48.7867 101.062 48.4108 100.819 47.9298 100.695C47.5415 100.595 46.9857 100.545 46.2624 100.545C45.5391 100.545 44.9833 100.595 44.595 100.695C44.114 100.819 43.7363 101.047 43.462 101.379C43.1912 101.71 43.0558 102.15 43.0558 102.699C43.0558 103.116 43.0986 103.566 43.1841 104.051L45.9631 104.051L45.9631 102.683L46.6044 102.683L46.6044 104.735L42.6817 104.735C42.5036 103.99 42.4145 103.312 42.4145 102.699C42.4145 101.983 42.598 101.397 42.965 100.94C43.3319 100.488 43.8254 100.183 44.4453 100.027C44.88 99.9162 45.4857 99.8609 46.2624 99.8609C47.0391 99.8609 47.6448 99.9162 48.0795 100.027C48.6994 100.183 49.1929 100.504 49.5598 100.989C49.9268 101.477 50.1103 102.1 50.1103 102.859ZM50.0248 105.422L50.0248 106.106L46.5617 106.106L46.5617 109.526L50.0248 109.526L50.0248 110.21L42.5 110.21L42.5 109.526L45.9204 109.526L45.9204 106.106L42.5 106.106L42.5 105.422L50.0248 105.422ZM50.0248 115.685L49.3835 115.685L49.3835 113.633L42.5 113.633L42.5 112.949L49.3835 112.949L49.3835 110.897L50.0248 110.897L50.0248 115.685Z" fill="#E45403"/>
</svg>
