<svg width="564" height="324" viewBox="0 0 564 324" fill="none" xmlns="http://www.w3.org/2000/svg">
<path d="M543.213 54.252C538.037 50.8607 524.129 48.8886 517.61 47.7827C496.986 44.3177 474.208 39.7099 461.189 34.6598C450.739 30.605 440.308 25.9235 430.885 21.3895C430.885 21.3895 430.872 21.3833 430.845 21.371C418.716 15.5284 399.079 4.70937 394.002 4.28545C387.265 2.79254 380.233 2 373.002 2H190.998C183.767 2 176.735 2.79254 169.998 4.28545C160.535 6.36816 145.304 15.4915 133.214 21.3157C133.194 21.3157 133.194 21.3342 133.174 21.3342C123.731 25.8866 113.261 30.605 102.791 34.6598C89.792 39.7099 67.0143 44.3177 46.3701 47.7827C39.8509 48.8886 26.9113 50.3631 20.7674 54.252C9.4477 61.2743 2 73.2729 2 86.8934V210.99C2 224.887 7.80802 237.494 17.2905 246.857C27.5039 256.938 41.9647 263.223 58.0059 263.223H90.7402C116.264 263.813 139.2 274.227 155.32 290.575C156.505 291.957 157.75 293.303 159.054 294.611C162.432 298.021 166.086 301.173 169.998 304.03C185.447 315.291 204.886 322 226.004 322H337.996C359.114 322 378.553 315.273 394.002 304.011C398.605 300.657 402.852 296.897 406.685 292.787C406.784 292.658 406.902 292.547 407.001 292.437C423.694 274.54 448.269 263.223 475.69 263.223H505.994C536.911 263.223 562 239.834 562 210.99V86.8934C562 73.2729 554.335 61.5139 543.213 54.252Z" fill="#FFE5D7" stroke="#E45403" stroke-width="4" stroke-miterlimit="10"/>
<path d="M89.3333 90H74.6667V94H89.3333V90ZM97.3333 112.667V98H93.3333V112.667H97.3333ZM116 116.667H101.333V120.667H116V116.667ZM124 139.333V124.667H120V139.333H124ZM101.333 147.333H116V143.333H101.333V147.333ZM93.3333 151.333V166H97.3333V151.333H93.3333ZM89.3333 170H74.6667V174H89.3333V170ZM70.6667 166V151.333H66.6667V166H70.6667ZM48 147.333H62.6667V143.333H48V147.333ZM40 124.667V139.333H44V124.667H40ZM62.6667 116.667H48V120.667H62.6667V116.667ZM66.6667 98V112.667H70.6667V98H66.6667ZM62.6667 120.667C67.0849 120.667 70.6667 117.085 70.6667 112.667H66.6667C66.6667 114.876 64.8758 116.667 62.6667 116.667V120.667ZM44 124.667C44 122.458 45.7909 120.667 48 120.667V116.667C43.5817 116.667 40 120.248 40 124.667H44ZM48 143.333C45.7909 143.333 44 141.542 44 139.333H40C40 143.752 43.5817 147.333 48 147.333V143.333ZM70.6667 151.333C70.6667 146.915 67.0849 143.333 62.6667 143.333V147.333C64.8758 147.333 66.6667 149.124 66.6667 151.333H70.6667ZM74.6667 170C72.4575 170 70.6667 168.209 70.6667 166H66.6667C66.6667 170.418 70.2484 174 74.6667 174V170ZM93.3333 166C93.3333 168.209 91.5425 170 89.3333 170V174C93.7516 174 97.3333 170.418 97.3333 166H93.3333ZM101.333 143.333C96.9151 143.333 93.3333 146.915 93.3333 151.333H97.3333C97.3333 149.124 99.1242 147.333 101.333 147.333V143.333ZM120 139.333C120 141.542 118.209 143.333 116 143.333V147.333C120.418 147.333 124 143.752 124 139.333H120ZM116 120.667C118.209 120.667 120 122.458 120 124.667H124C124 120.248 120.418 116.667 116 116.667V120.667ZM93.3333 112.667C93.3333 117.085 96.915 120.667 101.333 120.667V116.667C99.1242 116.667 97.3333 114.876 97.3333 112.667H93.3333ZM74.6667 90C70.2484 90 66.6667 93.5817 66.6667 98H70.6667C70.6667 95.7909 72.4575 94 74.6667 94V90ZM89.3333 94C91.5425 94 93.3333 95.7909 93.3333 98H97.3333C97.3333 93.5817 93.7516 90 89.3333 90V94Z" fill="#E45403"/>
<circle cx="452" cy="142" r="20" stroke="#E45403" stroke-width="4"/>
<circle cx="512" cy="122" r="20" stroke="#E45403" stroke-width="4"/>
<path d="M442 202L513 181M442 211.5L513 190.5M442 221.5L513 200.5M442 231.743L513 210.743M442 242L513 221" stroke="#E45403" stroke-width="4" stroke-linecap="round"/>
<path d="M162 54C162 47.3726 167.373 42 174 42H390C396.627 42 402 47.3726 402 54V246C402 265.882 385.882 282 366 282H198C178.118 282 162 265.882 162 246V54Z" fill="#E45403" stroke="#E45403" stroke-width="4"/>
<rect x="177" y="61" width="209" height="161" fill="#FFE5D7"/>
</svg>
