<svg width="244" height="244" viewBox="0 0 244 244" fill="none" xmlns="http://www.w3.org/2000/svg">
<path d="M162 14C162 7.37258 156.627 2 150 2H94C87.3726 2 82 7.37258 82 14V70C82 76.6274 76.6274 82 70 82H14C7.37258 82 2 87.3726 2 94V150C2 156.627 7.37258 162 14 162H70C76.6274 162 82 167.373 82 174V230C82 236.627 87.3726 242 94 242H150C156.627 242 162 236.627 162 230V174C162 167.373 167.373 162 174 162H230C236.627 162 242 156.627 242 150V94C242 87.3726 236.627 82 230 82H174C167.373 82 162 76.6274 162 70V14Z" stroke="#E45403" stroke-width="4"/>
<path d="M118.148 33.0391L109.957 39.1914L105 32.4766L119.027 22H125.707L139.734 32.4766L134.777 39.1914L126.586 33.0391V62.5H118.148V33.0391Z" fill="#E45403"/>
<path d="M211.461 118.148L205.309 109.957L212.023 105L222.5 119.027L222.5 125.707L212.023 139.734L205.309 134.777L211.461 126.586L182 126.586L182 118.148L211.461 118.148Z" fill="#E45403"/>
<path d="M33.0391 126.586L39.1914 134.777L32.4766 139.734L22 125.707L22 119.027L32.4766 105L39.1914 109.957L33.0391 118.148L62.5 118.148L62.5 126.586L33.0391 126.586Z" fill="#E45403"/>
<path d="M126.586 211.461L134.777 205.309L139.734 212.023L125.707 222.5L119.027 222.5L105 212.023L109.957 205.309L118.148 211.461L118.148 182L126.586 182L126.586 211.461Z" fill="#E45403"/>
</svg>
