<svg width="404" height="364" viewBox="0 0 404 364" fill="none" xmlns="http://www.w3.org/2000/svg">
<rect x="2" y="2" width="400" height="360" fill="#FFE5D7" stroke="#E45403" stroke-width="4"/>
<circle cx="203" cy="185" r="159" fill="#FFE5D7" stroke="#E45403" stroke-width="4"/>
<circle cx="203" cy="185" r="54" fill="#FFE5D7" stroke="#E45403" stroke-width="4"/>
<circle cx="203" cy="185" r="31" fill="#FFE5D7" stroke="#E45403" stroke-width="4"/>
<g clip-path="url(#clip0_269_1166)">
<path d="M127 195H85V255H127V195Z" fill="#E45403"/>
<path d="M124 204.75H88V240.75H124V204.75Z" fill="#FFE5D7"/>
<path d="M88.8535 196.855H92.2249V197.909H89.9773V199.401H91.663V200.455H89.9773V201.983H92.2249V203.036H88.8535V196.855ZM95.0585 202.084C95.4243 200.737 95.7272 198.995 95.9672 196.855H97.1041C96.8086 199.401 96.4091 201.462 95.9057 203.036H94.1674C93.664 201.462 93.2645 199.401 92.9689 196.855H94.1059C94.3488 199.006 94.6517 200.749 95.0146 202.084H95.0585ZM97.8482 196.855H101.22V197.909H98.972V199.401H100.658V200.455H98.972V201.983H101.22V203.036H97.8482V196.855ZM103.469 197.909V199.7H103.742C103.993 199.7 104.176 199.688 104.29 199.665C104.486 199.624 104.644 199.526 104.764 199.371C104.884 199.216 104.944 199.027 104.944 198.804C104.944 198.582 104.884 198.393 104.764 198.238C104.644 198.083 104.486 197.985 104.29 197.944C104.173 197.921 103.99 197.909 103.742 197.909H103.469ZM102.346 196.855H103.733C104.166 196.855 104.475 196.877 104.659 196.921C105.075 197.021 105.413 197.239 105.673 197.575C105.936 197.909 106.068 198.319 106.068 198.804C106.068 199.17 105.991 199.497 105.835 199.783C105.683 200.067 105.475 200.293 105.212 200.459L106.178 203.036H104.984L104.167 200.749C104.08 200.752 103.935 200.754 103.733 200.754H103.469V203.036H102.346V196.855ZM108.551 199.3C108.984 198.305 109.276 197.49 109.428 196.855H110.618C110.39 197.555 110.156 198.188 109.916 198.756C109.676 199.321 109.401 199.846 109.09 200.332V203.036H107.967V200.332C107.656 199.846 107.381 199.321 107.141 198.756C106.901 198.188 106.667 197.555 106.439 196.855H107.629C107.652 196.964 107.68 197.076 107.712 197.193C107.747 197.31 107.788 197.438 107.835 197.575C107.885 197.713 107.926 197.83 107.958 197.927C107.993 198.02 108.043 198.149 108.107 198.313C108.172 198.474 108.215 198.586 108.239 198.651C108.265 198.712 108.313 198.831 108.384 199.006C108.457 199.179 108.498 199.277 108.507 199.3H108.551ZM112.179 198.813C112.135 199.053 112.113 199.431 112.113 199.946C112.113 200.461 112.135 200.838 112.179 201.078C112.231 201.362 112.328 201.596 112.468 201.781C112.612 201.962 112.798 202.053 113.026 202.053C113.254 202.053 113.439 201.962 113.579 201.781C113.722 201.596 113.82 201.362 113.873 201.078C113.917 200.835 113.939 200.458 113.939 199.946C113.939 199.431 113.917 199.053 113.873 198.813C113.82 198.529 113.722 198.297 113.579 198.115C113.439 197.931 113.254 197.839 113.026 197.839C112.798 197.839 112.612 197.931 112.468 198.115C112.328 198.297 112.231 198.529 112.179 198.813ZM111.112 201.478C111.03 201.153 110.989 200.642 110.989 199.946C110.989 199.249 111.03 198.739 111.112 198.414C111.229 197.94 111.45 197.55 111.775 197.246C112.1 196.939 112.517 196.785 113.026 196.785C113.535 196.785 113.952 196.939 114.277 197.246C114.602 197.55 114.823 197.94 114.94 198.414C115.022 198.739 115.063 199.249 115.063 199.946C115.063 200.642 115.022 201.153 114.94 201.478C114.823 201.952 114.602 202.343 114.277 202.65C113.952 202.954 113.535 203.106 113.026 203.106C112.517 203.106 112.1 202.954 111.775 202.65C111.45 202.343 111.229 201.952 111.112 201.478ZM116.961 203.036H115.838V196.855H116.957L118.041 200.358H118.085V196.855H119.209V203.036H118.085L117.005 199.533H116.961V203.036ZM120.335 196.855H123.706V197.909H121.459V199.401H123.144V200.455H121.459V201.983H123.706V203.036H120.335V196.855Z" fill="#FFE5D7"/>
<path d="M98.6348 247.566H101.725V248.532H99.6649V249.9H101.21V250.866H99.6649V252.266H101.725V253.232H98.6348V247.566ZM104.222 253.296C103.782 253.296 103.286 253.253 102.733 253.168V252.186C103.38 252.282 103.876 252.331 104.222 252.331C104.7 252.331 104.938 252.076 104.938 251.566C104.938 251.424 104.903 251.29 104.834 251.164C104.767 251.035 104.671 250.946 104.548 250.898C104.47 250.868 104.363 250.844 104.226 250.826C104.089 250.807 103.948 250.78 103.804 250.745C103.661 250.708 103.525 250.65 103.393 250.572C102.889 250.272 102.637 249.797 102.637 249.148C102.637 248.684 102.784 248.293 103.079 247.977C103.377 247.66 103.758 247.502 104.222 247.502C104.584 247.502 105.081 247.535 105.711 247.602V248.572C105.059 248.502 104.563 248.468 104.222 248.468C104.12 248.468 104.03 248.49 103.952 248.536C103.877 248.582 103.82 248.641 103.779 248.713C103.739 248.786 103.71 248.859 103.691 248.934C103.675 249.01 103.667 249.083 103.667 249.156C103.667 249.472 103.774 249.679 103.989 249.776C104.058 249.808 104.217 249.844 104.464 249.884C104.713 249.922 104.914 249.98 105.067 250.061C105.282 250.171 105.459 250.313 105.598 250.488C105.738 250.662 105.834 250.838 105.888 251.015C105.942 251.192 105.968 251.375 105.968 251.566C105.968 252.086 105.808 252.505 105.486 252.821C105.164 253.138 104.743 253.296 104.222 253.296ZM107.91 248.532V250.174H108.16C108.39 250.174 108.558 250.163 108.663 250.142C108.842 250.104 108.987 250.014 109.097 249.872C109.207 249.73 109.262 249.557 109.262 249.353C109.262 249.149 109.207 248.976 109.097 248.834C108.987 248.692 108.842 248.602 108.663 248.564C108.555 248.543 108.388 248.532 108.16 248.532H107.91ZM106.88 247.566H108.151C108.549 247.566 108.832 247.586 109.001 247.627C109.381 247.718 109.691 247.918 109.93 248.226C110.172 248.532 110.292 248.908 110.292 249.353C110.292 249.688 110.221 249.987 110.079 250.25C109.939 250.511 109.749 250.717 109.508 250.87L110.393 253.232H109.298L108.55 251.135C108.469 251.138 108.337 251.14 108.151 251.14H107.91V253.232H106.88V247.566ZM112.21 249.9C112.411 249.9 112.542 249.892 112.604 249.876C112.749 249.841 112.864 249.766 112.95 249.651C113.039 249.533 113.083 249.388 113.083 249.216C113.083 249.047 113.039 248.903 112.95 248.786C112.862 248.667 112.746 248.592 112.604 248.56C112.518 248.541 112.387 248.532 112.21 248.532H112.033V249.9H112.21ZM113.469 250.303C113.745 250.383 113.96 250.548 114.113 250.797C114.269 251.044 114.346 251.341 114.346 251.687C114.346 252.062 114.247 252.384 114.049 252.653C113.853 252.918 113.598 253.09 113.284 253.168C113.112 253.211 112.827 253.232 112.427 253.232H111.002V247.566H112.21C112.556 247.566 112.803 247.584 112.95 247.619C113.28 247.696 113.55 247.867 113.759 248.129C113.968 248.393 114.073 248.714 114.073 249.095C114.073 249.662 113.872 250.05 113.469 250.262V250.303ZM112.033 250.866V252.266H112.431C112.672 252.266 112.833 252.256 112.914 252.234C113.048 252.199 113.155 252.123 113.236 252.005C113.316 251.884 113.356 251.738 113.356 251.566C113.356 251.394 113.316 251.248 113.236 251.127C113.155 251.007 113.048 250.93 112.914 250.898C112.823 250.877 112.662 250.866 112.431 250.866H112.033Z" fill="#FFE5D7"/>
<path d="M91.2676 206.096V206.579H90.6237V208.929H90.1086V206.579H89.4648V206.096H91.2676ZM92.0412 208.929H91.5261V206.096H92.0412L92.4174 206.977H92.4396L92.8138 206.096H93.3288V208.929H92.8138V207.126H92.7936L92.5381 207.641H92.3168L92.0613 207.118H92.0412V208.929Z" fill="#E45403"/>
<path d="M94.0957 211.417L108.956 206.42L110.518 211.064L100.611 214.396L102.823 220.974L110.254 218.476L111.815 223.12L104.385 225.618L106.65 232.352L116.557 229.02L118.118 233.664L103.258 238.662L94.0957 211.417Z" fill="#E45403"/>
<path d="M90.1171 245.134V245.661C89.8552 245.696 89.6233 245.713 89.4214 245.713C89.1214 245.713 88.8792 245.639 88.6948 245.49C88.5119 245.339 88.3883 245.135 88.3239 244.879C88.2785 244.701 88.2559 244.452 88.2559 244.133C88.2559 243.814 88.2785 243.565 88.3239 243.387C88.3883 243.129 88.5097 242.926 88.6883 242.776C88.8668 242.627 89.1038 242.553 89.3994 242.553C89.6233 242.553 89.8516 242.566 90.0842 242.592V243.119C89.7916 243.093 89.5655 243.079 89.406 243.079C89.106 243.079 88.9231 243.248 88.8573 243.584C88.8309 243.722 88.8178 243.905 88.8178 244.133C88.8178 244.361 88.8309 244.544 88.8573 244.682C88.9231 245.018 89.1111 245.187 89.4214 245.187C89.5896 245.187 89.8216 245.169 90.1171 245.134ZM91.0993 243.567C91.0774 243.687 91.0664 243.876 91.0664 244.133C91.0664 244.39 91.0774 244.579 91.0993 244.699C91.1257 244.841 91.174 244.958 91.2442 245.05C91.3159 245.141 91.4088 245.187 91.523 245.187C91.6371 245.187 91.7293 245.141 91.7995 245.05C91.8712 244.958 91.9202 244.841 91.9466 244.699C91.9685 244.578 91.9795 244.389 91.9795 244.133C91.9795 243.876 91.9685 243.687 91.9466 243.567C91.9202 243.425 91.8712 243.309 91.7995 243.218C91.7293 243.126 91.6371 243.079 91.523 243.079C91.4088 243.079 91.3159 243.126 91.2442 243.218C91.174 243.309 91.1257 243.425 91.0993 243.567ZM90.566 244.899C90.525 244.737 90.5045 244.481 90.5045 244.133C90.5045 243.785 90.525 243.529 90.566 243.367C90.6245 243.13 90.735 242.935 90.8974 242.783C91.0598 242.629 91.2684 242.553 91.523 242.553C91.7776 242.553 91.9861 242.629 92.1485 242.783C92.3109 242.935 92.4214 243.13 92.4799 243.367C92.5209 243.529 92.5414 243.785 92.5414 244.133C92.5414 244.481 92.5209 244.737 92.4799 244.899C92.4214 245.136 92.3109 245.332 92.1485 245.485C91.9861 245.637 91.7776 245.713 91.523 245.713C91.2684 245.713 91.0598 245.637 90.8974 245.485C90.735 245.332 90.6245 245.136 90.566 244.899ZM93.4907 245.678H92.9288V242.588H93.4885L94.0306 244.339H94.0526V242.588H94.6145V245.678H94.0526L93.5126 243.927H93.4907V245.678ZM97.0036 242.588V243.115H96.3013V245.678H95.7394V243.115H95.037V242.588H97.0036ZM97.4261 242.588H99.1118V243.115H97.988V243.861H98.8309V244.388H97.988V245.152H99.1118V245.678H97.4261V242.588ZM100.237 245.678H99.6748V242.588H100.235L100.777 244.339H100.799V242.588H101.36V245.678H100.799L100.259 243.927H100.237V245.678ZM103.75 242.588V243.115H103.047V245.678H102.485V243.115H101.783V242.588H103.75ZM106.983 243.115V244.01H107.119C107.245 244.01 107.336 244.004 107.393 243.993C107.491 243.972 107.57 243.923 107.63 243.846C107.69 243.768 107.72 243.673 107.72 243.562C107.72 243.451 107.69 243.357 107.63 243.279C107.57 243.202 107.491 243.153 107.393 243.132C107.335 243.121 107.243 243.115 107.119 243.115H106.983ZM106.421 242.588H107.114C107.331 242.588 107.485 242.599 107.578 242.621C107.785 242.671 107.954 242.779 108.085 242.948C108.216 243.115 108.282 243.319 108.282 243.562C108.282 243.745 108.243 243.908 108.166 244.052C108.09 244.194 107.986 244.306 107.854 244.39L108.337 245.678H107.74L107.332 244.535C107.288 244.536 107.215 244.537 107.114 244.537H106.983V245.678H106.421V242.588ZM109.831 244.555C109.746 244.003 109.643 243.506 109.523 243.064H109.501C109.383 243.502 109.28 243.998 109.194 244.555H109.831ZM109.078 242.588H109.947C110.199 243.375 110.398 244.405 110.546 245.678H109.978C109.96 245.476 109.936 245.277 109.905 245.081H109.119C109.089 245.277 109.065 245.476 109.047 245.678H108.479C108.626 244.405 108.826 243.375 109.078 242.588ZM112.744 242.588V243.115H112.042V245.678H111.48V243.115H110.778V242.588H112.744ZM113.167 242.588H114.853V243.115H113.729V243.861H114.572V244.388H113.729V245.152H114.853V245.678H113.167V242.588ZM116.034 242.588C116.506 242.588 116.849 242.761 117.064 243.108C117.147 243.24 117.204 243.389 117.233 243.556C117.262 243.723 117.277 243.915 117.277 244.133C117.277 244.351 117.262 244.543 117.233 244.71C117.204 244.877 117.147 245.026 117.064 245.158C116.849 245.505 116.506 245.678 116.034 245.678H115.275V242.588H116.034ZM116.59 244.87C116.673 244.73 116.715 244.484 116.715 244.133C116.715 243.782 116.673 243.536 116.59 243.396C116.48 243.208 116.31 243.115 116.081 243.115H115.837V245.152H116.081C116.31 245.152 116.48 245.058 116.59 244.87ZM120.571 243.861C120.681 243.861 120.753 243.856 120.786 243.848C120.865 243.829 120.928 243.788 120.975 243.725C121.023 243.661 121.048 243.581 121.048 243.488C121.048 243.396 121.023 243.317 120.975 243.253C120.927 243.189 120.864 243.148 120.786 243.13C120.74 243.12 120.668 243.115 120.571 243.115H120.475V243.861H120.571ZM121.258 244.081C121.409 244.124 121.526 244.214 121.61 244.351C121.694 244.485 121.737 244.647 121.737 244.835C121.737 245.04 121.683 245.216 121.574 245.362C121.468 245.507 121.329 245.601 121.157 245.643C121.064 245.667 120.908 245.678 120.69 245.678H119.913V242.588H120.571C120.76 242.588 120.895 242.597 120.975 242.617C121.155 242.659 121.302 242.752 121.416 242.895C121.53 243.039 121.588 243.214 121.588 243.422C121.588 243.731 121.478 243.943 121.258 244.058V244.081ZM120.475 244.388V245.152H120.692C120.824 245.152 120.911 245.146 120.955 245.134C121.029 245.115 121.087 245.073 121.131 245.009C121.175 244.943 121.197 244.863 121.197 244.77C121.197 244.676 121.175 244.596 121.131 244.53C121.087 244.465 121.029 244.423 120.955 244.405C120.906 244.393 120.818 244.388 120.692 244.388H120.475ZM123.015 243.811C123.232 243.313 123.378 242.905 123.454 242.588H124.049C123.935 242.938 123.818 243.254 123.698 243.538C123.578 243.821 123.44 244.083 123.285 244.326V245.678H122.723V244.326C122.568 244.083 122.431 243.821 122.311 243.538C122.191 243.254 122.074 242.938 121.96 242.588H122.554C122.566 242.642 122.58 242.698 122.596 242.757C122.614 242.815 122.634 242.879 122.658 242.948C122.682 243.016 122.703 243.075 122.719 243.124C122.737 243.17 122.761 243.235 122.794 243.316C122.826 243.397 122.848 243.454 122.859 243.486C122.873 243.516 122.897 243.576 122.932 243.664C122.969 243.75 122.989 243.799 122.993 243.811H123.015Z" fill="#FFE5D7"/>
</g>
<path d="M148.667 68.3333V74.5833H140.333V105H133.667V74.5833H125.333V68.3333H148.667ZM153.68 68.3333H173.68V74.5833H160.346V83.4375H170.346V89.6875H160.346V98.75H173.68V105H153.68V68.3333ZM202.026 68.3333V74.5833H193.693V105H187.026V74.5833H178.693V68.3333H202.026ZM213.706 74.5833V85.2083H215.32C216.813 85.2083 217.898 85.1389 218.576 85C219.739 84.7569 220.676 84.1753 221.388 83.2552C222.1 82.3351 222.456 81.2153 222.456 79.8958C222.456 78.5764 222.1 77.4566 221.388 76.5365C220.676 75.6163 219.739 75.0347 218.576 74.7917C217.881 74.6528 216.796 74.5833 215.32 74.5833H213.706ZM207.039 68.3333H215.268C217.838 68.3333 219.669 68.4635 220.763 68.724C223.228 69.3142 225.234 70.6076 226.779 72.6042C228.341 74.5833 229.122 77.0139 229.122 79.8958C229.122 82.066 228.662 84.0017 227.742 85.7031C226.839 87.3872 225.607 88.724 224.044 89.7135L229.773 105H222.69L217.846 91.4323C217.326 91.4497 216.466 91.4583 215.268 91.4583H213.706V105H207.039V68.3333ZM253.719 68.3333V74.5833H247.052V98.75H253.719V105H233.719V98.75H240.385V74.5833H233.719V68.3333H253.719ZM269.878 105.417C267.03 105.417 263.819 105.139 260.242 104.583V98.2292C264.426 98.8542 267.638 99.1667 269.878 99.1667C272.968 99.1667 274.513 97.5174 274.513 94.2188C274.513 93.2986 274.287 92.4306 273.836 91.6146C273.402 90.7812 272.786 90.2083 271.987 89.8958C271.484 89.7049 270.789 89.5486 269.904 89.4271C269.018 89.3056 268.107 89.1319 267.169 88.9062C266.249 88.6632 265.364 88.2899 264.513 87.7865C261.249 85.842 259.617 82.7691 259.617 78.5677C259.617 75.5642 260.572 73.0382 262.482 70.9896C264.409 68.941 266.874 67.9167 269.878 67.9167C272.221 67.9167 275.433 68.1337 279.513 68.5677V74.8438C275.294 74.3924 272.082 74.1667 269.878 74.1667C269.218 74.1667 268.636 74.3142 268.133 74.6094C267.647 74.9045 267.273 75.2865 267.013 75.7552C266.753 76.224 266.562 76.7014 266.44 77.1875C266.336 77.6736 266.284 78.151 266.284 78.6198C266.284 80.6684 266.978 82.0052 268.367 82.6302C268.819 82.8385 269.843 83.0729 271.44 83.3333C273.055 83.5764 274.357 83.9583 275.346 84.4792C276.735 85.191 277.881 86.1111 278.784 87.2396C279.687 88.3681 280.312 89.5052 280.659 90.651C281.006 91.7969 281.18 92.9861 281.18 94.2188C281.18 97.5868 280.138 100.295 278.055 102.344C275.971 104.392 273.246 105.417 269.878 105.417Z" fill="#E45403"/>
<path d="M28 175C108.91 175 174.5 109.41 174.5 28.5C174.5 19.4516 173.68 10.5949 172.109 2H2V172.7C10.4382 174.211 19.127 175 28 175Z" fill="#FFE5D7" stroke="#E45403" stroke-width="4"/>
<path d="M274.5 167V161.5H275V166.531H277.5V167H274.5ZM280.479 163.531C280.348 163.448 280.189 163.406 280.002 163.406C279.814 163.406 279.654 163.448 279.521 163.531C279.391 163.615 279.298 163.73 279.24 163.879C279.186 164.004 279.15 164.221 279.135 164.531H280.869C280.854 164.221 280.818 164.004 280.764 163.879C280.706 163.73 280.611 163.615 280.479 163.531ZM279.221 163.156C279.437 163.01 279.697 162.937 280.002 162.937C280.307 162.937 280.566 163.01 280.779 163.156C280.995 163.302 281.146 163.491 281.232 163.723C281.277 163.835 281.309 163.966 281.33 164.117C281.354 164.268 281.367 164.402 281.369 164.52C281.374 164.634 281.377 164.794 281.377 165H279.127C279.127 165.177 279.128 165.314 279.131 165.41C279.133 165.504 279.144 165.617 279.162 165.75C279.183 165.883 279.213 165.993 279.252 166.082C279.403 166.423 279.679 166.594 280.08 166.594C280.382 166.594 280.773 166.566 281.252 166.512V166.98C280.778 167.035 280.387 167.063 280.08 167.063C279.757 167.063 279.485 166.987 279.264 166.836C279.042 166.685 278.882 166.488 278.783 166.246C278.715 166.082 278.673 165.906 278.654 165.719C278.636 165.531 278.627 165.292 278.627 165C278.627 164.794 278.628 164.634 278.631 164.52C278.636 164.402 278.649 164.268 278.67 164.117C278.693 163.966 278.727 163.835 278.771 163.723C278.857 163.491 279.007 163.302 279.221 163.156ZM283.461 163.586C283.24 163.792 283.129 164.18 283.129 164.75C283.129 165.32 283.24 165.708 283.461 165.914C283.589 166.034 283.749 166.094 283.941 166.094C284.134 166.094 284.294 166.034 284.422 165.914C284.643 165.708 284.754 165.32 284.754 164.75C284.754 164.18 284.643 163.792 284.422 163.586C284.294 163.466 284.134 163.406 283.941 163.406C283.749 163.406 283.589 163.466 283.461 163.586ZM284.754 166.012H284.715C284.478 166.379 284.194 166.562 283.863 166.562C283.556 166.562 283.294 166.457 283.078 166.246C282.779 165.949 282.629 165.451 282.629 164.75C282.629 164.049 282.779 163.551 283.078 163.254C283.294 163.043 283.556 162.937 283.863 162.937C284.194 162.937 284.478 163.121 284.715 163.488H284.754V163H285.254V166.375C285.254 166.82 285.174 167.176 285.016 167.441C284.768 167.855 284.379 168.063 283.848 168.063C283.546 168.063 283.238 168.043 282.926 168.004V167.535C283.277 167.574 283.585 167.594 283.848 167.594C284.178 167.594 284.423 167.466 284.582 167.211C284.697 167.026 284.754 166.747 284.754 166.375V166.012ZM288.482 163.531C288.352 163.448 288.193 163.406 288.006 163.406C287.818 163.406 287.658 163.448 287.525 163.531C287.395 163.615 287.301 163.73 287.244 163.879C287.189 164.004 287.154 164.221 287.139 164.531H288.873C288.857 164.221 288.822 164.004 288.768 163.879C288.71 163.73 288.615 163.615 288.482 163.531ZM287.225 163.156C287.441 163.01 287.701 162.937 288.006 162.937C288.311 162.937 288.57 163.01 288.783 163.156C288.999 163.302 289.15 163.491 289.236 163.723C289.281 163.835 289.313 163.966 289.334 164.117C289.357 164.268 289.37 164.402 289.373 164.52C289.378 164.634 289.381 164.794 289.381 165H287.131C287.131 165.177 287.132 165.314 287.135 165.41C287.137 165.504 287.148 165.617 287.166 165.75C287.187 165.883 287.217 165.993 287.256 166.082C287.407 166.423 287.683 166.594 288.084 166.594C288.386 166.594 288.777 166.566 289.256 166.512V166.98C288.782 167.035 288.391 167.063 288.084 167.063C287.761 167.063 287.489 166.987 287.268 166.836C287.046 166.685 286.886 166.488 286.787 166.246C286.719 166.082 286.676 165.906 286.658 165.719C286.64 165.531 286.631 165.292 286.631 165C286.631 164.794 286.632 164.634 286.635 164.52C286.64 164.402 286.653 164.268 286.674 164.117C286.697 163.966 286.731 163.835 286.775 163.723C286.861 163.491 287.011 163.302 287.225 163.156ZM292.086 162.937C292.273 162.937 292.445 162.975 292.602 163.051C292.758 163.126 292.887 163.228 292.988 163.355C293.053 163.436 293.105 163.52 293.145 163.605C293.184 163.691 293.21 163.786 293.223 163.891C293.238 163.995 293.247 164.081 293.25 164.148C293.255 164.216 293.258 164.311 293.258 164.434V167H292.758V164.434C292.758 164.29 292.755 164.184 292.75 164.113C292.747 164.043 292.732 163.965 292.703 163.879C292.677 163.79 292.637 163.714 292.582 163.648C292.441 163.487 292.25 163.406 292.008 163.406C291.766 163.406 291.574 163.487 291.434 163.648C291.379 163.714 291.337 163.79 291.309 163.879C291.283 163.965 291.267 164.043 291.262 164.113C291.259 164.184 291.258 164.29 291.258 164.434V167H290.758V163H291.258V163.438H291.297C291.393 163.286 291.512 163.165 291.652 163.074C291.796 162.983 291.94 162.937 292.086 162.937ZM295.869 162.937C296.044 162.937 296.206 162.983 296.357 163.074C296.508 163.163 296.63 163.301 296.721 163.488H296.76V161.5H297.26V167H296.76V166.512H296.721C296.63 166.699 296.508 166.839 296.357 166.93C296.206 167.018 296.044 167.063 295.869 167.063C295.611 167.063 295.382 166.982 295.182 166.82C294.981 166.656 294.835 166.428 294.744 166.137C294.71 166.027 294.684 165.905 294.666 165.77C294.65 165.634 294.641 165.52 294.639 165.426C294.636 165.329 294.635 165.187 294.635 165C294.635 164.812 294.636 164.672 294.639 164.578C294.641 164.482 294.65 164.366 294.666 164.23C294.684 164.095 294.71 163.973 294.744 163.863C294.835 163.572 294.981 163.345 295.182 163.184C295.382 163.02 295.611 162.937 295.869 162.937ZM296.389 163.578C296.269 163.464 296.122 163.406 295.947 163.406C295.773 163.406 295.624 163.464 295.502 163.578C295.382 163.69 295.294 163.831 295.236 164C295.169 164.206 295.135 164.539 295.135 165C295.135 165.461 295.169 165.794 295.236 166C295.294 166.169 295.382 166.311 295.502 166.426C295.624 166.538 295.773 166.594 295.947 166.594C296.122 166.594 296.269 166.538 296.389 166.426C296.511 166.311 296.601 166.169 296.658 166C296.726 165.794 296.76 165.461 296.76 165C296.76 164.539 296.726 164.206 296.658 164C296.601 163.831 296.511 163.69 296.389 163.578ZM300.762 165H299.996C299.9 165 299.824 165.003 299.77 165.008C299.717 165.013 299.651 165.033 299.57 165.066C299.49 165.098 299.418 165.146 299.355 165.211C299.21 165.365 299.137 165.566 299.137 165.816C299.137 166.038 299.199 166.223 299.324 166.371C299.452 166.52 299.624 166.594 299.84 166.594C299.965 166.594 300.076 166.576 300.172 166.539C300.271 166.503 300.352 166.457 300.414 166.402C300.479 166.348 300.534 166.276 300.578 166.187C300.625 166.099 300.659 166.017 300.68 165.941C300.703 165.863 300.721 165.771 300.734 165.664C300.747 165.557 300.755 165.47 300.758 165.402C300.76 165.335 300.762 165.254 300.762 165.16V165ZM300.137 162.937C300.361 162.937 300.557 162.973 300.727 163.043C300.896 163.111 301.035 163.241 301.145 163.434C301.223 163.572 301.262 163.785 301.262 164.074V167H300.762V166.52H300.723C300.46 166.882 300.134 167.063 299.746 167.063C299.434 167.063 299.171 166.945 298.957 166.711C298.743 166.477 298.637 166.181 298.637 165.824C298.637 165.449 298.751 165.147 298.98 164.918C299.064 164.837 299.152 164.771 299.246 164.719C299.34 164.667 299.438 164.632 299.539 164.613C299.643 164.592 299.724 164.581 299.781 164.578C299.841 164.573 299.915 164.57 300.004 164.57H300.762V164.094C300.762 163.867 300.738 163.714 300.691 163.633C300.647 163.557 300.583 163.501 300.5 163.465C300.419 163.426 300.298 163.406 300.137 163.406C299.824 163.406 299.449 163.434 299.012 163.488V163.012C299.441 162.962 299.816 162.937 300.137 162.937ZM304.561 163.406C304.206 163.406 303.926 163.501 303.721 163.691C303.614 163.79 303.527 163.9 303.459 164.02C303.391 164.139 303.344 164.273 303.318 164.422C303.292 164.568 303.277 164.686 303.271 164.777C303.266 164.868 303.264 164.991 303.264 165.145V167H302.764V163H303.264V163.621H303.303C303.464 163.402 303.643 163.234 303.838 163.117C304.036 162.997 304.277 162.937 304.561 162.937C304.753 162.937 304.988 162.954 305.264 162.988V163.457C304.988 163.423 304.753 163.406 304.561 163.406ZM308.129 166.062C308.376 165.302 308.654 164.281 308.961 163H309.473C309.46 163.049 309.428 163.173 309.379 163.371C309.332 163.566 309.302 163.693 309.289 163.75C309.276 163.805 309.247 163.921 309.203 164.098C309.159 164.272 309.126 164.396 309.105 164.469C309.087 164.539 309.057 164.655 309.016 164.816C308.974 164.975 308.939 165.1 308.91 165.191C308.884 165.283 308.849 165.404 308.805 165.555C308.76 165.706 308.719 165.84 308.68 165.957C308.643 166.074 308.6 166.206 308.551 166.352C308.504 166.497 308.456 166.642 308.406 166.785C308.344 166.962 308.294 167.095 308.258 167.184C308.224 167.275 308.174 167.378 308.109 167.492C308.044 167.607 307.974 167.694 307.898 167.754C307.654 167.96 307.276 168.063 306.766 168.063V167.594C307.138 167.594 307.393 167.54 307.531 167.434C307.591 167.389 307.646 167.322 307.695 167.23C307.747 167.139 307.788 167.055 307.816 166.977C307.848 166.898 307.905 166.74 307.988 166.5H307.785C307.504 165.99 307.268 165.451 307.078 164.883C306.891 164.315 306.719 163.687 306.563 163H307.074C307.345 164.245 307.684 165.266 308.09 166.062H308.129ZM276.75 173H275.984C275.888 173 275.812 173.003 275.758 173.008C275.706 173.013 275.639 173.033 275.559 173.066C275.478 173.098 275.406 173.146 275.344 173.211C275.198 173.365 275.125 173.566 275.125 173.816C275.125 174.038 275.188 174.223 275.312 174.371C275.44 174.52 275.612 174.594 275.828 174.594C275.953 174.594 276.064 174.576 276.16 174.539C276.259 174.503 276.34 174.457 276.402 174.402C276.467 174.348 276.522 174.276 276.566 174.187C276.613 174.099 276.647 174.017 276.668 173.941C276.691 173.863 276.71 173.771 276.723 173.664C276.736 173.557 276.743 173.47 276.746 173.402C276.749 173.335 276.75 173.254 276.75 173.16V173ZM276.125 170.937C276.349 170.937 276.546 170.973 276.715 171.043C276.884 171.111 277.023 171.241 277.133 171.434C277.211 171.572 277.25 171.785 277.25 172.074V175H276.75V174.52H276.711C276.448 174.882 276.122 175.063 275.734 175.063C275.422 175.063 275.159 174.945 274.945 174.711C274.732 174.477 274.625 174.181 274.625 173.824C274.625 173.449 274.74 173.147 274.969 172.918C275.052 172.837 275.141 172.771 275.234 172.719C275.328 172.667 275.426 172.632 275.527 172.613C275.632 172.592 275.712 172.581 275.77 172.578C275.829 172.573 275.904 172.57 275.992 172.57H276.75V172.094C276.75 171.867 276.727 171.714 276.68 171.633C276.635 171.557 276.572 171.501 276.488 171.465C276.408 171.426 276.286 171.406 276.125 171.406C275.813 171.406 275.438 171.434 275 171.488V171.012C275.43 170.962 275.805 170.937 276.125 170.937ZM279.861 170.937C280.036 170.937 280.199 170.983 280.35 171.074C280.501 171.163 280.622 171.301 280.713 171.488H280.752V169.5H281.252V175H280.752V174.512H280.713C280.622 174.699 280.501 174.839 280.35 174.93C280.199 175.018 280.036 175.063 279.861 175.063C279.604 175.063 279.374 174.982 279.174 174.82C278.973 174.656 278.827 174.428 278.736 174.137C278.702 174.027 278.676 173.905 278.658 173.77C278.643 173.634 278.633 173.52 278.631 173.426C278.628 173.329 278.627 173.187 278.627 173C278.627 172.812 278.628 172.672 278.631 172.578C278.633 172.482 278.643 172.366 278.658 172.23C278.676 172.095 278.702 171.973 278.736 171.863C278.827 171.572 278.973 171.345 279.174 171.184C279.374 171.02 279.604 170.937 279.861 170.937ZM280.381 171.578C280.261 171.464 280.114 171.406 279.939 171.406C279.765 171.406 279.617 171.464 279.494 171.578C279.374 171.69 279.286 171.831 279.229 172C279.161 172.206 279.127 172.539 279.127 173C279.127 173.461 279.161 173.794 279.229 174C279.286 174.169 279.374 174.311 279.494 174.426C279.617 174.538 279.765 174.594 279.939 174.594C280.114 174.594 280.261 174.538 280.381 174.426C280.503 174.311 280.593 174.169 280.65 174C280.718 173.794 280.752 173.461 280.752 173C280.752 172.539 280.718 172.206 280.65 172C280.593 171.831 280.503 171.69 280.381 171.578ZM283.863 170.937C284.038 170.937 284.201 170.983 284.352 171.074C284.503 171.163 284.624 171.301 284.715 171.488H284.754V169.5H285.254V175H284.754V174.512H284.715C284.624 174.699 284.503 174.839 284.352 174.93C284.201 175.018 284.038 175.063 283.863 175.063C283.605 175.063 283.376 174.982 283.176 174.82C282.975 174.656 282.829 174.428 282.738 174.137C282.704 174.027 282.678 173.905 282.66 173.77C282.645 173.634 282.635 173.52 282.633 173.426C282.63 173.329 282.629 173.187 282.629 173C282.629 172.812 282.63 172.672 282.633 172.578C282.635 172.482 282.645 172.366 282.66 172.23C282.678 172.095 282.704 171.973 282.738 171.863C282.829 171.572 282.975 171.345 283.176 171.184C283.376 171.02 283.605 170.937 283.863 170.937ZM284.383 171.578C284.263 171.464 284.116 171.406 283.941 171.406C283.767 171.406 283.618 171.464 283.496 171.578C283.376 171.69 283.288 171.831 283.23 172C283.163 172.206 283.129 172.539 283.129 173C283.129 173.461 283.163 173.794 283.23 174C283.288 174.169 283.376 174.311 283.496 174.426C283.618 174.538 283.767 174.594 283.941 174.594C284.116 174.594 284.263 174.538 284.383 174.426C284.505 174.311 284.595 174.169 284.652 174C284.72 173.794 284.754 173.461 284.754 173C284.754 172.539 284.72 172.206 284.652 172C284.595 171.831 284.505 171.69 284.383 171.578ZM287.814 169.559C287.895 169.478 288.001 169.437 288.131 169.437C288.261 169.437 288.367 169.478 288.447 169.559C288.528 169.639 288.568 169.745 288.568 169.875C288.568 170.005 288.528 170.111 288.447 170.191C288.367 170.272 288.261 170.312 288.131 170.312C288.001 170.312 287.895 170.272 287.814 170.191C287.734 170.111 287.693 170.005 287.693 169.875C287.693 169.745 287.734 169.639 287.814 169.559ZM288.006 175V171.469H287.006V171H288.506V175H288.006ZM290.408 173.719C290.39 173.531 290.381 173.292 290.381 173C290.381 172.708 290.39 172.469 290.408 172.281C290.429 172.094 290.476 171.918 290.549 171.754C290.786 171.21 291.227 170.937 291.873 170.937C292.133 170.937 292.485 170.96 292.928 171.004V171.473C292.48 171.428 292.128 171.406 291.873 171.406C291.649 171.406 291.471 171.449 291.338 171.535C291.208 171.618 291.101 171.746 291.018 171.918C290.976 172.007 290.943 172.117 290.92 172.25C290.899 172.383 290.887 172.497 290.885 172.594C290.882 172.687 290.881 172.823 290.881 173C290.881 173.177 290.882 173.314 290.885 173.41C290.887 173.504 290.899 173.617 290.92 173.75C290.943 173.883 290.976 173.993 291.018 174.082C291.101 174.254 291.208 174.383 291.338 174.469C291.471 174.552 291.649 174.594 291.873 174.594C292.178 174.594 292.555 174.56 293.006 174.492V174.961C292.558 175.029 292.18 175.063 291.873 175.063C291.227 175.063 290.786 174.79 290.549 174.246C290.476 174.082 290.429 173.906 290.408 173.719ZM297.26 175.004C296.981 175.043 296.731 175.063 296.51 175.063C296.301 175.063 296.111 175.025 295.939 174.949C295.77 174.874 295.632 174.771 295.525 174.641C295.442 174.542 295.38 174.426 295.338 174.293C295.296 174.16 295.273 174.049 295.268 173.961C295.262 173.872 295.26 173.75 295.26 173.594V171.492H294.26V171H295.26V170H295.76V171H297.26V171.492H295.76V173.555C295.76 173.698 295.761 173.805 295.764 173.875C295.769 173.945 295.785 174.026 295.811 174.117C295.837 174.208 295.876 174.286 295.928 174.352C296.063 174.513 296.27 174.594 296.549 174.594C296.734 174.594 296.971 174.574 297.26 174.535V175.004ZM299.82 169.559C299.901 169.478 300.007 169.437 300.137 169.437C300.267 169.437 300.372 169.478 300.453 169.559C300.534 169.639 300.574 169.745 300.574 169.875C300.574 170.005 300.534 170.111 300.453 170.191C300.372 170.272 300.267 170.312 300.137 170.312C300.007 170.312 299.901 170.272 299.82 170.191C299.74 170.111 299.699 170.005 299.699 169.875C299.699 169.745 299.74 169.639 299.82 169.559ZM300.012 175V171.469H299.012V171H300.512V175H300.012ZM303.84 170.937C304.027 170.937 304.199 170.975 304.355 171.051C304.512 171.126 304.641 171.228 304.742 171.355C304.807 171.436 304.859 171.52 304.898 171.605C304.938 171.691 304.964 171.786 304.977 171.891C304.992 171.995 305.001 172.081 305.004 172.148C305.009 172.216 305.012 172.311 305.012 172.434V175H304.512V172.434C304.512 172.29 304.509 172.184 304.504 172.113C304.501 172.043 304.486 171.965 304.457 171.879C304.431 171.79 304.391 171.714 304.336 171.648C304.195 171.487 304.004 171.406 303.762 171.406C303.52 171.406 303.328 171.487 303.188 171.648C303.133 171.714 303.091 171.79 303.062 171.879C303.036 171.965 303.021 172.043 303.016 172.113C303.013 172.184 303.012 172.29 303.012 172.434V175H302.512V171H303.012V171.438H303.051C303.147 171.286 303.266 171.165 303.406 171.074C303.549 170.983 303.694 170.937 303.84 170.937ZM307.473 171.586C307.251 171.792 307.141 172.18 307.141 172.75C307.141 173.32 307.251 173.708 307.473 173.914C307.6 174.034 307.76 174.094 307.953 174.094C308.146 174.094 308.306 174.034 308.434 173.914C308.655 173.708 308.766 173.32 308.766 172.75C308.766 172.18 308.655 171.792 308.434 171.586C308.306 171.466 308.146 171.406 307.953 171.406C307.76 171.406 307.6 171.466 307.473 171.586ZM308.766 174.012H308.727C308.49 174.379 308.206 174.562 307.875 174.562C307.568 174.562 307.306 174.457 307.09 174.246C306.79 173.949 306.641 173.451 306.641 172.75C306.641 172.049 306.79 171.551 307.09 171.254C307.306 171.043 307.568 170.937 307.875 170.937C308.206 170.937 308.49 171.121 308.727 171.488H308.766V171H309.266V174.375C309.266 174.82 309.186 175.176 309.027 175.441C308.78 175.855 308.391 176.063 307.859 176.063C307.557 176.063 307.25 176.043 306.938 176.004V175.535C307.289 175.574 307.596 175.594 307.859 175.594C308.19 175.594 308.435 175.466 308.594 175.211C308.708 175.026 308.766 174.747 308.766 174.375V174.012ZM275.457 179.586C275.236 179.792 275.125 180.18 275.125 180.75C275.125 181.32 275.236 181.708 275.457 181.914C275.585 182.034 275.745 182.094 275.938 182.094C276.13 182.094 276.29 182.034 276.418 181.914C276.639 181.708 276.75 181.32 276.75 180.75C276.75 180.18 276.639 179.792 276.418 179.586C276.29 179.466 276.13 179.406 275.938 179.406C275.745 179.406 275.585 179.466 275.457 179.586ZM276.75 182.012H276.711C276.474 182.379 276.19 182.562 275.859 182.562C275.552 182.562 275.29 182.457 275.074 182.246C274.775 181.949 274.625 181.451 274.625 180.75C274.625 180.049 274.775 179.551 275.074 179.254C275.29 179.043 275.552 178.937 275.859 178.937C276.19 178.937 276.474 179.121 276.711 179.488H276.75V179H277.25V182.375C277.25 182.82 277.171 183.176 277.012 183.441C276.764 183.855 276.375 184.063 275.844 184.063C275.542 184.063 275.234 184.043 274.922 184.004V183.535C275.273 183.574 275.581 183.594 275.844 183.594C276.174 183.594 276.419 183.466 276.578 183.211C276.693 183.026 276.75 182.747 276.75 182.375V182.012ZM280.752 181H279.986C279.89 181 279.814 181.003 279.76 181.008C279.708 181.013 279.641 181.033 279.561 181.066C279.48 181.098 279.408 181.146 279.346 181.211C279.2 181.365 279.127 181.566 279.127 181.816C279.127 182.038 279.189 182.223 279.314 182.371C279.442 182.52 279.614 182.594 279.83 182.594C279.955 182.594 280.066 182.576 280.162 182.539C280.261 182.503 280.342 182.457 280.404 182.402C280.469 182.348 280.524 182.276 280.568 182.187C280.615 182.099 280.649 182.017 280.67 181.941C280.693 181.863 280.712 181.771 280.725 181.664C280.738 181.557 280.745 181.47 280.748 181.402C280.751 181.335 280.752 181.254 280.752 181.16V181ZM280.127 178.937C280.351 178.937 280.548 178.973 280.717 179.043C280.886 179.111 281.025 179.241 281.135 179.434C281.213 179.572 281.252 179.785 281.252 180.074V183H280.752V182.52H280.713C280.45 182.882 280.124 183.063 279.736 183.063C279.424 183.063 279.161 182.945 278.947 182.711C278.734 182.477 278.627 182.181 278.627 181.824C278.627 181.449 278.742 181.147 278.971 180.918C279.054 180.837 279.143 180.771 279.236 180.719C279.33 180.667 279.428 180.632 279.529 180.613C279.633 180.592 279.714 180.581 279.771 180.578C279.831 180.573 279.906 180.57 279.994 180.57H280.752V180.094C280.752 179.867 280.729 179.714 280.682 179.633C280.637 179.557 280.574 179.501 280.49 179.465C280.41 179.426 280.288 179.406 280.127 179.406C279.814 179.406 279.439 179.434 279.002 179.488V179.012C279.432 178.962 279.807 178.937 280.127 178.937ZM283.371 178.937C283.527 178.937 283.667 178.978 283.789 179.059C283.914 179.137 284.013 179.241 284.086 179.371C284.307 179.082 284.569 178.937 284.871 178.937C285.158 178.937 285.384 179.049 285.551 179.273C285.613 179.359 285.66 179.454 285.691 179.559C285.723 179.663 285.741 179.753 285.746 179.828C285.751 179.901 285.754 180.008 285.754 180.148V183H285.254V180.148C285.254 180.036 285.253 179.954 285.25 179.902C285.247 179.85 285.237 179.792 285.219 179.727C285.201 179.661 285.173 179.608 285.137 179.566C285.043 179.46 284.915 179.406 284.754 179.406C284.592 179.406 284.465 179.46 284.371 179.566C284.335 179.608 284.307 179.661 284.289 179.727C284.271 179.792 284.26 179.85 284.258 179.902C284.255 179.954 284.254 180.036 284.254 180.148V183H283.754V180.148C283.754 180.036 283.753 179.954 283.75 179.902C283.747 179.85 283.737 179.792 283.719 179.727C283.701 179.661 283.673 179.608 283.637 179.566C283.543 179.46 283.415 179.406 283.254 179.406C283.092 179.406 282.965 179.46 282.871 179.566C282.835 179.608 282.807 179.661 282.789 179.727C282.771 179.792 282.76 179.85 282.758 179.902C282.755 179.954 282.754 180.036 282.754 180.148V183H282.254V179H282.754V179.293H282.793C282.954 179.056 283.147 178.937 283.371 178.937ZM288.482 179.531C288.352 179.448 288.193 179.406 288.006 179.406C287.818 179.406 287.658 179.448 287.525 179.531C287.395 179.615 287.301 179.73 287.244 179.879C287.189 180.004 287.154 180.221 287.139 180.531H288.873C288.857 180.221 288.822 180.004 288.768 179.879C288.71 179.73 288.615 179.615 288.482 179.531ZM287.225 179.156C287.441 179.01 287.701 178.937 288.006 178.937C288.311 178.937 288.57 179.01 288.783 179.156C288.999 179.302 289.15 179.491 289.236 179.723C289.281 179.835 289.313 179.966 289.334 180.117C289.357 180.268 289.37 180.402 289.373 180.52C289.378 180.634 289.381 180.794 289.381 181H287.131C287.131 181.177 287.132 181.314 287.135 181.41C287.137 181.504 287.148 181.617 287.166 181.75C287.187 181.883 287.217 181.993 287.256 182.082C287.407 182.423 287.683 182.594 288.084 182.594C288.386 182.594 288.777 182.566 289.256 182.512V182.98C288.782 183.035 288.391 183.063 288.084 183.063C287.761 183.063 287.489 182.987 287.268 182.836C287.046 182.685 286.886 182.488 286.787 182.246C286.719 182.082 286.676 181.906 286.658 181.719C286.64 181.531 286.631 181.292 286.631 181C286.631 180.794 286.632 180.634 286.635 180.52C286.64 180.402 286.653 180.268 286.674 180.117C286.697 179.966 286.731 179.835 286.775 179.723C286.861 179.491 287.011 179.302 287.225 179.156ZM296.088 178.937C296.275 178.937 296.447 178.975 296.604 179.051C296.76 179.126 296.889 179.228 296.99 179.355C297.055 179.436 297.107 179.52 297.146 179.605C297.186 179.691 297.212 179.786 297.225 179.891C297.24 179.995 297.249 180.081 297.252 180.148C297.257 180.216 297.26 180.311 297.26 180.434V183H296.76V180.434C296.76 180.29 296.757 180.184 296.752 180.113C296.749 180.043 296.734 179.965 296.705 179.879C296.679 179.79 296.639 179.714 296.584 179.648C296.443 179.487 296.252 179.406 296.01 179.406C295.768 179.406 295.576 179.487 295.436 179.648C295.381 179.714 295.339 179.79 295.311 179.879C295.285 179.965 295.269 180.043 295.264 180.113C295.261 180.184 295.26 180.29 295.26 180.434V183H294.76V179H295.26V179.438H295.299C295.395 179.286 295.514 179.165 295.654 179.074C295.798 178.983 295.942 178.937 296.088 178.937ZM299.359 179.105C299.552 178.993 299.77 178.937 300.012 178.937C300.254 178.937 300.47 178.993 300.66 179.105C300.853 179.215 301.01 179.367 301.133 179.562C301.234 179.729 301.302 179.927 301.336 180.156C301.37 180.383 301.387 180.664 301.387 181C301.387 181.336 301.37 181.618 301.336 181.848C301.302 182.074 301.234 182.271 301.133 182.438C301.01 182.633 300.853 182.786 300.66 182.898C300.47 183.008 300.254 183.063 300.012 183.063C299.77 183.063 299.552 183.008 299.359 182.898C299.169 182.786 299.013 182.633 298.891 182.438C298.789 182.271 298.721 182.074 298.688 181.848C298.654 181.618 298.637 181.336 298.637 181C298.637 180.664 298.654 180.383 298.688 180.156C298.721 179.927 298.789 179.729 298.891 179.562C299.013 179.367 299.169 179.215 299.359 179.105ZM300.699 179.789C300.548 179.534 300.319 179.406 300.012 179.406C299.704 179.406 299.475 179.534 299.324 179.789C299.267 179.885 299.224 180.007 299.195 180.152C299.167 180.296 299.15 180.424 299.145 180.539C299.139 180.654 299.137 180.807 299.137 181C299.137 181.193 299.139 181.346 299.145 181.461C299.15 181.576 299.167 181.706 299.195 181.852C299.224 181.995 299.267 182.115 299.324 182.211C299.475 182.466 299.704 182.594 300.012 182.594C300.319 182.594 300.548 182.466 300.699 182.211C300.757 182.115 300.799 181.995 300.828 181.852C300.857 181.706 300.874 181.576 300.879 181.461C300.884 181.346 300.887 181.193 300.887 181C300.887 180.807 300.884 180.654 300.879 180.539C300.874 180.424 300.857 180.296 300.828 180.152C300.799 180.007 300.757 179.885 300.699 179.789ZM303.771 180.004H304.256L304.896 182.453H304.936C305.204 181.422 305.338 180.271 305.338 179H305.838C305.838 180.339 305.644 181.672 305.256 183H304.654L304.033 180.707H303.994L303.373 183H302.771C302.383 181.672 302.189 180.339 302.189 179H302.689C302.689 180.271 302.824 181.422 303.092 182.453H303.131L303.771 180.004ZM276.75 189H275.984C275.888 189 275.812 189.003 275.758 189.008C275.706 189.013 275.639 189.033 275.559 189.066C275.478 189.098 275.406 189.146 275.344 189.211C275.198 189.365 275.125 189.566 275.125 189.816C275.125 190.038 275.188 190.223 275.312 190.371C275.44 190.52 275.612 190.594 275.828 190.594C275.953 190.594 276.064 190.576 276.16 190.539C276.259 190.503 276.34 190.457 276.402 190.402C276.467 190.348 276.522 190.276 276.566 190.187C276.613 190.099 276.647 190.017 276.668 189.941C276.691 189.863 276.71 189.771 276.723 189.664C276.736 189.557 276.743 189.47 276.746 189.402C276.749 189.335 276.75 189.254 276.75 189.16V189ZM276.125 186.937C276.349 186.937 276.546 186.973 276.715 187.043C276.884 187.111 277.023 187.241 277.133 187.434C277.211 187.572 277.25 187.785 277.25 188.074V191H276.75V190.52H276.711C276.448 190.882 276.122 191.063 275.734 191.063C275.422 191.063 275.159 190.945 274.945 190.711C274.732 190.477 274.625 190.181 274.625 189.824C274.625 189.449 274.74 189.147 274.969 188.918C275.052 188.837 275.141 188.771 275.234 188.719C275.328 188.667 275.426 188.632 275.527 188.613C275.632 188.592 275.712 188.581 275.77 188.578C275.829 188.573 275.904 188.57 275.992 188.57H276.75V188.094C276.75 187.867 276.727 187.714 276.68 187.633C276.635 187.557 276.572 187.501 276.488 187.465C276.408 187.426 276.286 187.406 276.125 187.406C275.813 187.406 275.438 187.434 275 187.488V187.012C275.43 186.962 275.805 186.937 276.125 186.937ZM280.021 190.344C280.376 189.479 280.683 188.365 280.943 187H281.455C281.307 187.776 281.136 188.491 280.943 189.145C280.753 189.796 280.515 190.414 280.229 191H279.775C279.489 190.414 279.249 189.796 279.057 189.145C278.867 188.491 278.697 187.776 278.549 187H279.061C279.321 188.362 279.628 189.477 279.982 190.344H280.021ZM284.754 189H283.988C283.892 189 283.816 189.003 283.762 189.008C283.71 189.013 283.643 189.033 283.562 189.066C283.482 189.098 283.41 189.146 283.348 189.211C283.202 189.365 283.129 189.566 283.129 189.816C283.129 190.038 283.191 190.223 283.316 190.371C283.444 190.52 283.616 190.594 283.832 190.594C283.957 190.594 284.068 190.576 284.164 190.539C284.263 190.503 284.344 190.457 284.406 190.402C284.471 190.348 284.526 190.276 284.57 190.187C284.617 190.099 284.651 190.017 284.672 189.941C284.695 189.863 284.714 189.771 284.727 189.664C284.74 189.557 284.747 189.47 284.75 189.402C284.753 189.335 284.754 189.254 284.754 189.16V189ZM284.129 186.937C284.353 186.937 284.549 186.973 284.719 187.043C284.888 187.111 285.027 187.241 285.137 187.434C285.215 187.572 285.254 187.785 285.254 188.074V191H284.754V190.52H284.715C284.452 190.882 284.126 191.063 283.738 191.063C283.426 191.063 283.163 190.945 282.949 190.711C282.736 190.477 282.629 190.181 282.629 189.824C282.629 189.449 282.743 189.147 282.973 188.918C283.056 188.837 283.145 188.771 283.238 188.719C283.332 188.667 283.43 188.632 283.531 188.613C283.635 188.592 283.716 188.581 283.773 188.578C283.833 188.573 283.908 188.57 283.996 188.57H284.754V188.094C284.754 187.867 284.73 187.714 284.684 187.633C284.639 187.557 284.576 187.501 284.492 187.465C284.411 187.426 284.29 187.406 284.129 187.406C283.816 187.406 283.441 187.434 283.004 187.488V187.012C283.434 186.962 283.809 186.937 284.129 186.937ZM287.814 185.559C287.895 185.478 288.001 185.437 288.131 185.437C288.261 185.437 288.367 185.478 288.447 185.559C288.528 185.639 288.568 185.745 288.568 185.875C288.568 186.005 288.528 186.111 288.447 186.191C288.367 186.272 288.261 186.312 288.131 186.312C288.001 186.312 287.895 186.272 287.814 186.191C287.734 186.111 287.693 186.005 287.693 185.875C287.693 185.745 287.734 185.639 287.814 185.559ZM288.006 191V187.469H287.006V187H288.506V191H288.006ZM292.756 191.043C292.508 191.056 292.329 191.063 292.217 191.063C291.938 191.063 291.713 190.974 291.541 190.797C291.452 190.706 291.386 190.6 291.342 190.48C291.298 190.358 291.271 190.262 291.264 190.191C291.258 190.118 291.256 190.025 291.256 189.91V185.5H291.756V189.91C291.756 189.991 291.757 190.053 291.76 190.098C291.762 190.142 291.771 190.195 291.787 190.258C291.805 190.32 291.831 190.375 291.865 190.422C291.951 190.536 292.081 190.594 292.256 190.594C292.433 190.594 292.6 190.587 292.756 190.574V191.043ZM296.76 189H295.994C295.898 189 295.822 189.003 295.768 189.008C295.715 189.013 295.649 189.033 295.568 189.066C295.488 189.098 295.416 189.146 295.354 189.211C295.208 189.365 295.135 189.566 295.135 189.816C295.135 190.038 295.197 190.223 295.322 190.371C295.45 190.52 295.622 190.594 295.838 190.594C295.963 190.594 296.074 190.576 296.17 190.539C296.269 190.503 296.35 190.457 296.412 190.402C296.477 190.348 296.532 190.276 296.576 190.187C296.623 190.099 296.657 190.017 296.678 189.941C296.701 189.863 296.719 189.771 296.732 189.664C296.745 189.557 296.753 189.47 296.756 189.402C296.758 189.335 296.76 189.254 296.76 189.16V189ZM296.135 186.937C296.359 186.937 296.555 186.973 296.725 187.043C296.894 187.111 297.033 187.241 297.143 187.434C297.221 187.572 297.26 187.785 297.26 188.074V191H296.76V190.52H296.721C296.458 190.882 296.132 191.063 295.744 191.063C295.432 191.063 295.169 190.945 294.955 190.711C294.742 190.477 294.635 190.181 294.635 189.824C294.635 189.449 294.749 189.147 294.979 188.918C295.062 188.837 295.15 188.771 295.244 188.719C295.338 188.667 295.436 188.632 295.537 188.613C295.641 188.592 295.722 188.581 295.779 188.578C295.839 188.573 295.913 188.57 296.002 188.57H296.76V188.094C296.76 187.867 296.736 187.714 296.689 187.633C296.645 187.557 296.581 187.501 296.498 187.465C296.417 187.426 296.296 187.406 296.135 187.406C295.822 187.406 295.447 187.434 295.01 187.488V187.012C295.439 186.962 295.814 186.937 296.135 186.937ZM300.152 186.937C300.41 186.937 300.639 187.02 300.84 187.184C301.04 187.345 301.186 187.572 301.277 187.863C301.311 187.973 301.336 188.095 301.352 188.23C301.37 188.366 301.38 188.482 301.383 188.578C301.385 188.672 301.387 188.812 301.387 189C301.387 189.187 301.385 189.329 301.383 189.426C301.38 189.52 301.37 189.634 301.352 189.77C301.336 189.905 301.311 190.027 301.277 190.137C301.186 190.428 301.04 190.656 300.84 190.82C300.639 190.982 300.41 191.063 300.152 191.063C299.819 191.063 299.535 190.879 299.301 190.512H299.262V191H298.762V185.5H299.262V187.488H299.301C299.535 187.121 299.819 186.937 300.152 186.937ZM300.516 187.578C300.396 187.464 300.249 187.406 300.074 187.406C299.9 187.406 299.751 187.464 299.629 187.578C299.509 187.69 299.421 187.831 299.363 188C299.296 188.206 299.262 188.539 299.262 189C299.262 189.461 299.296 189.794 299.363 190C299.421 190.169 299.509 190.311 299.629 190.426C299.751 190.538 299.9 190.594 300.074 190.594C300.249 190.594 300.396 190.538 300.516 190.426C300.638 190.311 300.728 190.169 300.785 190C300.853 189.794 300.887 189.461 300.887 189C300.887 188.539 300.853 188.206 300.785 188C300.728 187.831 300.638 187.69 300.516 187.578ZM305.014 191.043C304.766 191.056 304.587 191.063 304.475 191.063C304.196 191.063 303.971 190.974 303.799 190.797C303.71 190.706 303.644 190.6 303.6 190.48C303.555 190.358 303.529 190.262 303.521 190.191C303.516 190.118 303.514 190.025 303.514 189.91V185.5H304.014V189.91C304.014 189.991 304.015 190.053 304.018 190.098C304.02 190.142 304.029 190.195 304.045 190.258C304.063 190.32 304.089 190.375 304.123 190.422C304.209 190.536 304.339 190.594 304.514 190.594C304.691 190.594 304.857 190.587 305.014 190.574V191.043ZM308.492 187.531C308.362 187.448 308.203 187.406 308.016 187.406C307.828 187.406 307.668 187.448 307.535 187.531C307.405 187.615 307.311 187.73 307.254 187.879C307.199 188.004 307.164 188.221 307.148 188.531H308.883C308.867 188.221 308.832 188.004 308.777 187.879C308.72 187.73 308.625 187.615 308.492 187.531ZM307.234 187.156C307.451 187.01 307.711 186.937 308.016 186.937C308.32 186.937 308.579 187.01 308.793 187.156C309.009 187.302 309.16 187.491 309.246 187.723C309.29 187.835 309.323 187.966 309.344 188.117C309.367 188.268 309.38 188.402 309.383 188.52C309.388 188.634 309.391 188.794 309.391 189H307.141C307.141 189.177 307.142 189.314 307.145 189.41C307.147 189.504 307.158 189.617 307.176 189.75C307.197 189.883 307.227 189.993 307.266 190.082C307.417 190.423 307.693 190.594 308.094 190.594C308.396 190.594 308.786 190.566 309.266 190.512V190.98C308.792 191.035 308.401 191.063 308.094 191.063C307.771 191.063 307.499 190.987 307.277 190.836C307.056 190.685 306.896 190.488 306.797 190.246C306.729 190.082 306.686 189.906 306.668 189.719C306.65 189.531 306.641 189.292 306.641 189C306.641 188.794 306.642 188.634 306.645 188.52C306.65 188.402 306.663 188.268 306.684 188.117C306.707 187.966 306.741 187.835 306.785 187.723C306.871 187.491 307.021 187.302 307.234 187.156ZM275.348 195.105C275.54 194.993 275.758 194.937 276 194.937C276.242 194.937 276.458 194.993 276.648 195.105C276.841 195.215 276.999 195.367 277.121 195.562C277.223 195.729 277.29 195.927 277.324 196.156C277.358 196.383 277.375 196.664 277.375 197C277.375 197.336 277.358 197.618 277.324 197.848C277.29 198.074 277.223 198.271 277.121 198.438C276.999 198.633 276.841 198.786 276.648 198.898C276.458 199.008 276.242 199.063 276 199.063C275.758 199.063 275.54 199.008 275.348 198.898C275.158 198.786 275.001 198.633 274.879 198.438C274.777 198.271 274.71 198.074 274.676 197.848C274.642 197.618 274.625 197.336 274.625 197C274.625 196.664 274.642 196.383 274.676 196.156C274.71 195.927 274.777 195.729 274.879 195.562C275.001 195.367 275.158 195.215 275.348 195.105ZM276.688 195.789C276.536 195.534 276.307 195.406 276 195.406C275.693 195.406 275.464 195.534 275.312 195.789C275.255 195.885 275.212 196.007 275.184 196.152C275.155 196.296 275.138 196.424 275.133 196.539C275.128 196.654 275.125 196.807 275.125 197C275.125 197.193 275.128 197.346 275.133 197.461C275.138 197.576 275.155 197.706 275.184 197.852C275.212 197.995 275.255 198.115 275.312 198.211C275.464 198.466 275.693 198.594 276 198.594C276.307 198.594 276.536 198.466 276.688 198.211C276.745 198.115 276.788 197.995 276.816 197.852C276.845 197.706 276.862 197.576 276.867 197.461C276.872 197.346 276.875 197.193 276.875 197C276.875 196.807 276.872 196.654 276.867 196.539C276.862 196.424 276.845 196.296 276.816 196.152C276.788 196.007 276.745 195.885 276.688 195.789ZM280.08 194.937C280.268 194.937 280.439 194.975 280.596 195.051C280.752 195.126 280.881 195.228 280.982 195.355C281.048 195.436 281.1 195.52 281.139 195.605C281.178 195.691 281.204 195.786 281.217 195.891C281.232 195.995 281.242 196.081 281.244 196.148C281.249 196.216 281.252 196.311 281.252 196.434V199H280.752V196.434C280.752 196.29 280.749 196.184 280.744 196.113C280.742 196.043 280.726 195.965 280.697 195.879C280.671 195.79 280.631 195.714 280.576 195.648C280.436 195.487 280.244 195.406 280.002 195.406C279.76 195.406 279.568 195.487 279.428 195.648C279.373 195.714 279.331 195.79 279.303 195.879C279.277 195.965 279.261 196.043 279.256 196.113C279.253 196.184 279.252 196.29 279.252 196.434V199H278.752V195H279.252V195.438H279.291C279.387 195.286 279.506 195.165 279.646 195.074C279.79 194.983 279.934 194.937 280.08 194.937ZM287.373 194.937C287.529 194.937 287.669 194.978 287.791 195.059C287.916 195.137 288.015 195.241 288.088 195.371C288.309 195.082 288.571 194.937 288.873 194.937C289.16 194.937 289.386 195.049 289.553 195.273C289.615 195.359 289.662 195.454 289.693 195.559C289.725 195.663 289.743 195.753 289.748 195.828C289.753 195.901 289.756 196.008 289.756 196.148V199H289.256V196.148C289.256 196.036 289.255 195.954 289.252 195.902C289.249 195.85 289.239 195.792 289.221 195.727C289.202 195.661 289.175 195.608 289.139 195.566C289.045 195.46 288.917 195.406 288.756 195.406C288.594 195.406 288.467 195.46 288.373 195.566C288.337 195.608 288.309 195.661 288.291 195.727C288.273 195.792 288.262 195.85 288.26 195.902C288.257 195.954 288.256 196.036 288.256 196.148V199H287.756V196.148C287.756 196.036 287.755 195.954 287.752 195.902C287.749 195.85 287.739 195.792 287.721 195.727C287.702 195.661 287.675 195.608 287.639 195.566C287.545 195.46 287.417 195.406 287.256 195.406C287.094 195.406 286.967 195.46 286.873 195.566C286.837 195.608 286.809 195.661 286.791 195.727C286.773 195.792 286.762 195.85 286.76 195.902C286.757 195.954 286.756 196.036 286.756 196.148V199H286.256V195H286.756V195.293H286.795C286.956 195.056 287.149 194.937 287.373 194.937ZM291.355 195.105C291.548 194.993 291.766 194.937 292.008 194.937C292.25 194.937 292.466 194.993 292.656 195.105C292.849 195.215 293.007 195.367 293.129 195.562C293.23 195.729 293.298 195.927 293.332 196.156C293.366 196.383 293.383 196.664 293.383 197C293.383 197.336 293.366 197.618 293.332 197.848C293.298 198.074 293.23 198.271 293.129 198.438C293.007 198.633 292.849 198.786 292.656 198.898C292.466 199.008 292.25 199.063 292.008 199.063C291.766 199.063 291.548 199.008 291.355 198.898C291.165 198.786 291.009 198.633 290.887 198.438C290.785 198.271 290.717 198.074 290.684 197.848C290.65 197.618 290.633 197.336 290.633 197C290.633 196.664 290.65 196.383 290.684 196.156C290.717 195.927 290.785 195.729 290.887 195.562C291.009 195.367 291.165 195.215 291.355 195.105ZM292.695 195.789C292.544 195.534 292.315 195.406 292.008 195.406C291.701 195.406 291.471 195.534 291.32 195.789C291.263 195.885 291.22 196.007 291.191 196.152C291.163 196.296 291.146 196.424 291.141 196.539C291.135 196.654 291.133 196.807 291.133 197C291.133 197.193 291.135 197.346 291.141 197.461C291.146 197.576 291.163 197.706 291.191 197.852C291.22 197.995 291.263 198.115 291.32 198.211C291.471 198.466 291.701 198.594 292.008 198.594C292.315 198.594 292.544 198.466 292.695 198.211C292.753 198.115 292.796 197.995 292.824 197.852C292.853 197.706 292.87 197.576 292.875 197.461C292.88 197.346 292.883 197.193 292.883 197C292.883 196.807 292.88 196.654 292.875 196.539C292.87 196.424 292.853 196.296 292.824 196.152C292.796 196.007 292.753 195.885 292.695 195.789ZM295.869 194.937C296.044 194.937 296.206 194.983 296.357 195.074C296.508 195.163 296.63 195.301 296.721 195.488H296.76V193.5H297.26V199H296.76V198.512H296.721C296.63 198.699 296.508 198.839 296.357 198.93C296.206 199.018 296.044 199.063 295.869 199.063C295.611 199.063 295.382 198.982 295.182 198.82C294.981 198.656 294.835 198.428 294.744 198.137C294.71 198.027 294.684 197.905 294.666 197.77C294.65 197.634 294.641 197.52 294.639 197.426C294.636 197.329 294.635 197.187 294.635 197C294.635 196.812 294.636 196.672 294.639 196.578C294.641 196.482 294.65 196.366 294.666 196.23C294.684 196.095 294.71 195.973 294.744 195.863C294.835 195.572 294.981 195.345 295.182 195.184C295.382 195.02 295.611 194.937 295.869 194.937ZM296.389 195.578C296.269 195.464 296.122 195.406 295.947 195.406C295.773 195.406 295.624 195.464 295.502 195.578C295.382 195.69 295.294 195.831 295.236 196C295.169 196.206 295.135 196.539 295.135 197C295.135 197.461 295.169 197.794 295.236 198C295.294 198.169 295.382 198.311 295.502 198.426C295.624 198.538 295.773 198.594 295.947 198.594C296.122 198.594 296.269 198.538 296.389 198.426C296.511 198.311 296.601 198.169 296.658 198C296.726 197.794 296.76 197.461 296.76 197C296.76 196.539 296.726 196.206 296.658 196C296.601 195.831 296.511 195.69 296.389 195.578ZM300.488 195.531C300.358 195.448 300.199 195.406 300.012 195.406C299.824 195.406 299.664 195.448 299.531 195.531C299.401 195.615 299.307 195.73 299.25 195.879C299.195 196.004 299.16 196.221 299.145 196.531H300.879C300.863 196.221 300.828 196.004 300.773 195.879C300.716 195.73 300.621 195.615 300.488 195.531ZM299.23 195.156C299.447 195.01 299.707 194.937 300.012 194.937C300.316 194.937 300.576 195.01 300.789 195.156C301.005 195.302 301.156 195.491 301.242 195.723C301.286 195.835 301.319 195.966 301.34 196.117C301.363 196.268 301.376 196.402 301.379 196.52C301.384 196.634 301.387 196.794 301.387 197H299.137C299.137 197.177 299.138 197.314 299.141 197.41C299.143 197.504 299.154 197.617 299.172 197.75C299.193 197.883 299.223 197.993 299.262 198.082C299.413 198.423 299.689 198.594 300.09 198.594C300.392 198.594 300.783 198.566 301.262 198.512V198.98C300.788 199.035 300.397 199.063 300.09 199.063C299.767 199.063 299.495 198.987 299.273 198.836C299.052 198.685 298.892 198.488 298.793 198.246C298.725 198.082 298.682 197.906 298.664 197.719C298.646 197.531 298.637 197.292 298.637 197C298.637 196.794 298.638 196.634 298.641 196.52C298.646 196.402 298.659 196.268 298.68 196.117C298.703 195.966 298.737 195.835 298.781 195.723C298.867 195.491 299.017 195.302 299.23 195.156ZM304.561 195.406C304.206 195.406 303.926 195.501 303.721 195.691C303.614 195.79 303.527 195.9 303.459 196.02C303.391 196.139 303.344 196.273 303.318 196.422C303.292 196.568 303.277 196.686 303.271 196.777C303.266 196.868 303.264 196.991 303.264 197.145V199H302.764V195H303.264V195.621H303.303C303.464 195.402 303.643 195.234 303.838 195.117C304.036 194.997 304.277 194.937 304.561 194.937C304.753 194.937 304.988 194.954 305.264 194.988V195.457C304.988 195.423 304.753 195.406 304.561 195.406ZM308.094 194.937C308.281 194.937 308.453 194.975 308.609 195.051C308.766 195.126 308.895 195.228 308.996 195.355C309.061 195.436 309.113 195.52 309.152 195.605C309.191 195.691 309.217 195.786 309.23 195.891C309.246 195.995 309.255 196.081 309.258 196.148C309.263 196.216 309.266 196.311 309.266 196.434V199H308.766V196.434C308.766 196.29 308.763 196.184 308.758 196.113C308.755 196.043 308.74 195.965 308.711 195.879C308.685 195.79 308.645 195.714 308.59 195.648C308.449 195.487 308.258 195.406 308.016 195.406C307.773 195.406 307.582 195.487 307.441 195.648C307.387 195.714 307.345 195.79 307.316 195.879C307.29 195.965 307.275 196.043 307.27 196.113C307.267 196.184 307.266 196.29 307.266 196.434V199H306.766V195H307.266V195.438H307.305C307.401 195.286 307.52 195.165 307.66 195.074C307.803 194.983 307.948 194.937 308.094 194.937ZM276.141 207.063C275.807 207.063 275.523 206.879 275.289 206.512H275.25V208.5H274.75V203H275.25V203.488H275.289C275.523 203.121 275.807 202.937 276.141 202.937C276.398 202.937 276.628 203.02 276.828 203.184C277.029 203.345 277.174 203.572 277.266 203.863C277.299 203.973 277.324 204.095 277.34 204.23C277.358 204.366 277.368 204.482 277.371 204.578C277.374 204.672 277.375 204.812 277.375 205C277.375 205.187 277.374 205.329 277.371 205.426C277.368 205.52 277.358 205.634 277.34 205.77C277.324 205.905 277.299 206.027 277.266 206.137C277.174 206.428 277.029 206.656 276.828 206.82C276.628 206.982 276.398 207.063 276.141 207.063ZM275.617 206.426C275.74 206.538 275.888 206.594 276.062 206.594C276.237 206.594 276.384 206.538 276.504 206.426C276.626 206.311 276.716 206.169 276.773 206C276.841 205.794 276.875 205.461 276.875 205C276.875 204.539 276.841 204.206 276.773 204C276.716 203.831 276.626 203.69 276.504 203.578C276.384 203.464 276.237 203.406 276.062 203.406C275.888 203.406 275.74 203.464 275.617 203.578C275.497 203.69 275.409 203.831 275.352 204C275.284 204.206 275.25 204.539 275.25 205C275.25 205.461 275.284 205.794 275.352 206C275.409 206.169 275.497 206.311 275.617 206.426ZM281.002 207.043C280.755 207.056 280.575 207.063 280.463 207.063C280.184 207.063 279.959 206.974 279.787 206.797C279.699 206.706 279.632 206.6 279.588 206.48C279.544 206.358 279.518 206.262 279.51 206.191C279.505 206.118 279.502 206.025 279.502 205.91V201.5H280.002V205.91C280.002 205.991 280.003 206.053 280.006 206.098C280.008 206.142 280.018 206.195 280.033 206.258C280.051 206.32 280.077 206.375 280.111 206.422C280.197 206.536 280.327 206.594 280.502 206.594C280.679 206.594 280.846 206.587 281.002 206.574V207.043ZM284.754 205H283.988C283.892 205 283.816 205.003 283.762 205.008C283.71 205.013 283.643 205.033 283.562 205.066C283.482 205.098 283.41 205.146 283.348 205.211C283.202 205.365 283.129 205.566 283.129 205.816C283.129 206.038 283.191 206.223 283.316 206.371C283.444 206.52 283.616 206.594 283.832 206.594C283.957 206.594 284.068 206.576 284.164 206.539C284.263 206.503 284.344 206.457 284.406 206.402C284.471 206.348 284.526 206.276 284.57 206.187C284.617 206.099 284.651 206.017 284.672 205.941C284.695 205.863 284.714 205.771 284.727 205.664C284.74 205.557 284.747 205.47 284.75 205.402C284.753 205.335 284.754 205.254 284.754 205.16V205ZM284.129 202.937C284.353 202.937 284.549 202.973 284.719 203.043C284.888 203.111 285.027 203.241 285.137 203.434C285.215 203.572 285.254 203.785 285.254 204.074V207H284.754V206.52H284.715C284.452 206.882 284.126 207.063 283.738 207.063C283.426 207.063 283.163 206.945 282.949 206.711C282.736 206.477 282.629 206.181 282.629 205.824C282.629 205.449 282.743 205.147 282.973 204.918C283.056 204.837 283.145 204.771 283.238 204.719C283.332 204.667 283.43 204.632 283.531 204.613C283.635 204.592 283.716 204.581 283.773 204.578C283.833 204.573 283.908 204.57 283.996 204.57H284.754V204.094C284.754 203.867 284.73 203.714 284.684 203.633C284.639 203.557 284.576 203.501 284.492 203.465C284.411 203.426 284.29 203.406 284.129 203.406C283.816 203.406 283.441 203.434 283.004 203.488V203.012C283.434 202.962 283.809 202.937 284.129 202.937ZM289.256 207.004C288.977 207.043 288.727 207.063 288.506 207.063C288.298 207.063 288.107 207.025 287.936 206.949C287.766 206.874 287.628 206.771 287.521 206.641C287.438 206.542 287.376 206.426 287.334 206.293C287.292 206.16 287.269 206.049 287.264 205.961C287.258 205.872 287.256 205.75 287.256 205.594V203.492H286.256V203H287.256V202H287.756V203H289.256V203.492H287.756V205.555C287.756 205.698 287.757 205.805 287.76 205.875C287.765 205.945 287.781 206.026 287.807 206.117C287.833 206.208 287.872 206.286 287.924 206.352C288.059 206.513 288.266 206.594 288.545 206.594C288.73 206.594 288.967 206.574 289.256 206.535V207.004ZM292.008 207H291.508V203.969H290.508V203.5H291.508V202.59C291.508 202.491 291.509 202.411 291.512 202.352C291.517 202.289 291.535 202.204 291.566 202.098C291.6 201.988 291.648 201.892 291.711 201.809C291.797 201.691 291.915 201.6 292.066 201.535C292.22 201.47 292.393 201.437 292.586 201.437C292.831 201.437 293.138 201.458 293.508 201.5V201.969C293.138 201.927 292.831 201.906 292.586 201.906C292.362 201.906 292.206 201.965 292.117 202.082C292.044 202.178 292.008 202.348 292.008 202.59V203.5H293.508V203.969H292.008V207ZM295.357 203.105C295.55 202.993 295.768 202.937 296.01 202.937C296.252 202.937 296.468 202.993 296.658 203.105C296.851 203.215 297.008 203.367 297.131 203.562C297.232 203.729 297.3 203.927 297.334 204.156C297.368 204.383 297.385 204.664 297.385 205C297.385 205.336 297.368 205.618 297.334 205.848C297.3 206.074 297.232 206.271 297.131 206.438C297.008 206.633 296.851 206.786 296.658 206.898C296.468 207.008 296.252 207.063 296.01 207.063C295.768 207.063 295.55 207.008 295.357 206.898C295.167 206.786 295.011 206.633 294.889 206.438C294.787 206.271 294.719 206.074 294.686 205.848C294.652 205.618 294.635 205.336 294.635 205C294.635 204.664 294.652 204.383 294.686 204.156C294.719 203.927 294.787 203.729 294.889 203.562C295.011 203.367 295.167 203.215 295.357 203.105ZM296.697 203.789C296.546 203.534 296.317 203.406 296.01 203.406C295.702 203.406 295.473 203.534 295.322 203.789C295.265 203.885 295.222 204.007 295.193 204.152C295.165 204.296 295.148 204.424 295.143 204.539C295.137 204.654 295.135 204.807 295.135 205C295.135 205.193 295.137 205.346 295.143 205.461C295.148 205.576 295.165 205.706 295.193 205.852C295.222 205.995 295.265 206.115 295.322 206.211C295.473 206.466 295.702 206.594 296.01 206.594C296.317 206.594 296.546 206.466 296.697 206.211C296.755 206.115 296.798 205.995 296.826 205.852C296.855 205.706 296.872 205.576 296.877 205.461C296.882 205.346 296.885 205.193 296.885 205C296.885 204.807 296.882 204.654 296.877 204.539C296.872 204.424 296.855 204.296 296.826 204.152C296.798 204.007 296.755 203.885 296.697 203.789ZM300.559 203.406C300.204 203.406 299.924 203.501 299.719 203.691C299.612 203.79 299.525 203.9 299.457 204.02C299.389 204.139 299.342 204.273 299.316 204.422C299.29 204.568 299.275 204.686 299.27 204.777C299.264 204.868 299.262 204.991 299.262 205.145V207H298.762V203H299.262V203.621H299.301C299.462 203.402 299.641 203.234 299.836 203.117C300.034 202.997 300.275 202.937 300.559 202.937C300.751 202.937 300.986 202.954 301.262 202.988V203.457C300.986 203.423 300.751 203.406 300.559 203.406ZM303.381 202.937C303.537 202.937 303.676 202.978 303.799 203.059C303.924 203.137 304.023 203.241 304.096 203.371C304.317 203.082 304.579 202.937 304.881 202.937C305.167 202.937 305.394 203.049 305.561 203.273C305.623 203.359 305.67 203.454 305.701 203.559C305.732 203.663 305.751 203.753 305.756 203.828C305.761 203.901 305.764 204.008 305.764 204.148V207H305.264V204.148C305.264 204.036 305.262 203.954 305.26 203.902C305.257 203.85 305.247 203.792 305.229 203.727C305.21 203.661 305.183 203.608 305.146 203.566C305.053 203.46 304.925 203.406 304.764 203.406C304.602 203.406 304.475 203.46 304.381 203.566C304.344 203.608 304.317 203.661 304.299 203.727C304.281 203.792 304.27 203.85 304.268 203.902C304.265 203.954 304.264 204.036 304.264 204.148V207H303.764V204.148C303.764 204.036 303.762 203.954 303.76 203.902C303.757 203.85 303.747 203.792 303.729 203.727C303.71 203.661 303.683 203.608 303.646 203.566C303.553 203.46 303.425 203.406 303.264 203.406C303.102 203.406 302.975 203.46 302.881 203.566C302.844 203.608 302.817 203.661 302.799 203.727C302.781 203.792 302.77 203.85 302.768 203.902C302.765 203.954 302.764 204.036 302.764 204.148V207H302.264V203H302.764V203.293H302.803C302.964 203.056 303.157 202.937 303.381 202.937ZM308.51 202.937C308.807 202.937 309.212 202.965 309.725 203.02V203.488C309.146 203.434 308.742 203.406 308.51 203.406C308.262 203.406 308.062 203.457 307.908 203.559C307.755 203.66 307.678 203.818 307.678 204.031C307.678 204.156 307.712 204.267 307.779 204.363C307.847 204.46 307.933 204.531 308.037 204.578C308.154 204.63 308.348 204.671 308.619 204.699C308.89 204.725 309.093 204.77 309.229 204.832C309.419 204.921 309.576 205.056 309.701 205.238C309.826 205.421 309.889 205.629 309.889 205.863C309.889 206.223 309.757 206.513 309.494 206.734C309.234 206.953 308.907 207.063 308.514 207.063C308.407 207.063 308.294 207.059 308.174 207.051C308.054 207.046 307.955 207.039 307.877 207.031C307.801 207.026 307.693 207.017 307.553 207.004C307.415 206.991 307.318 206.982 307.264 206.977V206.512C307.87 206.566 308.287 206.594 308.514 206.594C308.771 206.594 308.981 206.53 309.143 206.402C309.307 206.272 309.389 206.092 309.389 205.863C309.389 205.72 309.354 205.596 309.283 205.492C309.213 205.385 309.122 205.306 309.01 205.254C308.895 205.199 308.701 205.159 308.428 205.133C308.157 205.104 307.954 205.06 307.818 205C307.636 204.919 307.484 204.793 307.361 204.621C307.239 204.449 307.178 204.253 307.178 204.031C307.178 203.682 307.303 203.413 307.553 203.223C307.805 203.033 308.124 202.937 308.51 202.937ZM311.611 206.094C311.715 205.99 311.851 205.937 312.018 205.937C312.184 205.937 312.32 205.99 312.424 206.094C312.528 206.198 312.58 206.333 312.58 206.5C312.58 206.667 312.528 206.802 312.424 206.906C312.32 207.01 312.184 207.063 312.018 207.063C311.851 207.063 311.715 207.01 311.611 206.906C311.507 206.802 311.455 206.667 311.455 206.5C311.455 206.333 311.507 206.198 311.611 206.094ZM312.268 205H311.768L311.729 201.5H312.307L312.268 205Z" fill="#E45403"/>
<path d="M241.718 263.803V264.822C240.558 265.031 239.537 265.136 238.654 265.136C237.602 265.136 236.756 264.847 236.117 264.27C235.484 263.693 235.039 262.907 234.785 261.911C234.609 261.221 234.522 260.259 234.522 259.026C234.522 257.793 234.609 256.831 234.785 256.141C235.039 255.139 235.475 254.353 236.092 253.782C236.708 253.204 237.534 252.916 238.57 252.916C239.475 252.916 240.439 252.998 241.463 253.162V254.18C240.4 254.016 239.435 253.934 238.57 253.934C237.806 253.934 237.212 254.146 236.788 254.571C236.363 254.989 236.049 255.592 235.846 256.378C235.687 256.995 235.608 257.877 235.608 259.026C235.608 260.174 235.687 261.057 235.846 261.673C236.049 262.454 236.369 263.057 236.805 263.481C237.246 263.905 237.862 264.117 238.654 264.117C239.492 264.117 240.513 264.013 241.718 263.803ZM247.807 254.274C247.456 254.047 247.057 253.934 246.61 253.934C246.163 253.934 245.761 254.047 245.405 254.274C245.054 254.5 244.771 254.789 244.556 255.139C244.398 255.4 244.271 255.685 244.175 255.996C244.078 256.302 244.011 256.65 243.971 257.04C243.937 257.425 243.914 257.742 243.903 257.991C243.897 258.239 243.895 258.585 243.895 259.026C243.895 259.467 243.897 259.812 243.903 260.061C243.914 260.31 243.937 260.63 243.971 261.02C244.011 261.405 244.078 261.753 244.175 262.064C244.271 262.369 244.398 262.652 244.556 262.912C244.771 263.263 245.054 263.552 245.405 263.778C245.761 264.004 246.163 264.117 246.61 264.117C247.057 264.117 247.456 264.004 247.807 263.778C248.163 263.552 248.449 263.263 248.664 262.912C248.822 262.652 248.949 262.369 249.046 262.064C249.142 261.753 249.207 261.405 249.241 261.02C249.28 260.63 249.303 260.31 249.309 260.061C249.32 259.812 249.326 259.467 249.326 259.026C249.326 258.585 249.32 258.239 249.309 257.991C249.303 257.742 249.28 257.425 249.241 257.04C249.207 256.65 249.142 256.302 249.046 255.996C248.949 255.685 248.822 255.4 248.664 255.139C248.449 254.789 248.163 254.5 247.807 254.274ZM244.845 253.408C245.365 253.08 245.954 252.916 246.61 252.916C247.266 252.916 247.855 253.08 248.375 253.408C248.896 253.731 249.306 254.138 249.606 254.63C249.758 254.885 249.889 255.17 249.996 255.487C250.103 255.798 250.183 256.084 250.234 256.344C250.29 256.605 250.333 256.921 250.361 257.295C250.389 257.662 250.403 257.951 250.403 258.16C250.409 258.364 250.412 258.652 250.412 259.026C250.412 259.399 250.409 259.691 250.403 259.9C250.403 260.104 250.389 260.392 250.361 260.765C250.333 261.133 250.29 261.447 250.234 261.707C250.183 261.968 250.103 262.256 249.996 262.573C249.889 262.884 249.758 263.167 249.606 263.422C249.306 263.914 248.896 264.324 248.375 264.652C247.855 264.975 247.266 265.136 246.61 265.136C245.954 265.136 245.365 264.975 244.845 264.652C244.325 264.324 243.914 263.914 243.615 263.422C243.462 263.167 243.332 262.884 243.224 262.573C243.117 262.256 243.035 261.968 242.978 261.707C242.927 261.447 242.888 261.133 242.859 260.765C242.831 260.392 242.814 260.104 242.808 259.9C242.808 259.691 242.808 259.399 242.808 259.026C242.808 258.652 242.808 258.364 242.808 258.16C242.814 257.951 242.831 257.662 242.859 257.295C242.888 256.921 242.927 256.605 242.978 256.344C243.035 256.084 243.117 255.798 243.224 255.487C243.332 255.17 243.462 254.885 243.615 254.63C243.914 254.138 244.325 253.731 244.845 253.408ZM252.588 265H251.502V253.052H252.588L255.262 258.381H255.355L258.019 253.052H259.106V265H258.019V255.241H257.935L255.771 259.569H254.837L252.673 255.241H252.588V265ZM261.825 254.07V259.569H263.09C263.333 259.569 263.525 259.566 263.667 259.56C263.808 259.549 263.992 259.527 264.219 259.493C264.445 259.459 264.654 259.396 264.846 259.306C265.044 259.215 265.228 259.097 265.398 258.949C265.675 258.712 265.896 258.409 266.06 258.041C266.224 257.668 266.306 257.261 266.306 256.82C266.306 256.378 266.224 255.974 266.06 255.606C265.896 255.233 265.675 254.927 265.398 254.69C265.228 254.542 265.044 254.424 264.846 254.333C264.654 254.243 264.445 254.18 264.219 254.146C263.992 254.112 263.808 254.093 263.667 254.087C263.525 254.076 263.333 254.07 263.09 254.07H261.825ZM260.739 253.052H263.09C263.367 253.052 263.593 253.057 263.769 253.069C263.95 253.08 264.19 253.111 264.49 253.162C264.796 253.207 265.084 253.298 265.356 253.434C265.633 253.564 265.89 253.733 266.128 253.943C266.971 254.69 267.392 255.648 267.392 256.82C267.392 257.991 266.971 258.949 266.128 259.696C265.89 259.906 265.633 260.078 265.356 260.214C265.084 260.344 264.796 260.435 264.49 260.485C264.19 260.531 263.95 260.559 263.769 260.57C263.593 260.582 263.367 260.587 263.09 260.587H261.825V265H260.739V253.052ZM268.678 265C269.181 260.259 270.335 256.276 272.14 253.052H273.243C275.048 256.276 276.202 260.259 276.706 265H275.56C275.475 263.976 275.32 262.879 275.093 261.707H270.29C270.262 261.883 270.22 262.143 270.163 262.488C270.106 262.828 270.061 263.108 270.027 263.328C269.993 263.549 269.956 263.815 269.917 264.126C269.877 264.437 269.846 264.728 269.824 265H268.678ZM274.915 260.689C274.587 259.303 274.256 258.087 273.922 257.04C273.588 255.994 273.192 255.029 272.734 254.146H272.649C272.191 255.029 271.795 255.994 271.461 257.04C271.128 258.087 270.797 259.303 270.468 260.689H274.915ZM285.187 263.803V264.822C284.028 265.031 283.006 265.136 282.124 265.136C281.072 265.136 280.226 264.847 279.587 264.27C278.953 263.693 278.509 262.907 278.254 261.911C278.079 261.221 277.991 260.259 277.991 259.026C277.991 257.793 278.079 256.831 278.254 256.141C278.509 255.139 278.945 254.353 279.561 253.782C280.178 253.204 281.004 252.916 282.039 252.916C282.944 252.916 283.909 252.998 284.933 253.162V254.18C283.869 254.016 282.905 253.934 282.039 253.934C281.275 253.934 280.681 254.146 280.257 254.571C279.833 254.989 279.519 255.592 279.315 256.378C279.157 256.995 279.077 257.877 279.077 259.026C279.077 260.174 279.157 261.057 279.315 261.673C279.519 262.454 279.838 263.057 280.274 263.481C280.715 263.905 281.332 264.117 282.124 264.117C282.961 264.117 283.982 264.013 285.187 263.803ZM293.881 253.052V254.07H290.623V265H289.536V254.07H286.278V253.052H293.881ZM239.769 270.086C242.805 270.086 245.016 271.204 246.402 273.438C246.94 274.287 247.303 275.249 247.491 276.323C247.68 277.398 247.774 278.638 247.774 280.043C247.774 281.448 247.68 282.688 247.491 283.763C247.303 284.838 246.94 285.799 246.402 286.648C245.016 288.883 242.805 290 239.769 290H234.876V270.086H239.769ZM243.347 284.795C243.885 283.89 244.154 282.306 244.154 280.043C244.154 277.78 243.885 276.196 243.347 275.291C242.64 274.084 241.546 273.481 240.066 273.481H238.496V286.606H240.066C241.546 286.606 242.64 286.002 243.347 284.795ZM262.436 270.086V273.481H258.815V286.606H262.436V290H251.574V286.606H255.195V273.481H251.574V270.086H262.436ZM272.515 290.226C270.969 290.226 269.225 290.075 267.282 289.774V286.323C269.555 286.662 271.299 286.832 272.515 286.832C274.194 286.832 275.033 285.936 275.033 284.145C275.033 283.645 274.91 283.173 274.665 282.73C274.429 282.278 274.095 281.967 273.661 281.797C273.388 281.693 273.01 281.608 272.53 281.542C272.049 281.476 271.554 281.382 271.045 281.259C270.545 281.127 270.064 280.925 269.602 280.651C267.829 279.595 266.943 277.926 266.943 275.645C266.943 274.013 267.462 272.641 268.499 271.529C269.545 270.416 270.884 269.86 272.515 269.86C273.788 269.86 275.533 269.978 277.748 270.213V273.622C275.457 273.377 273.713 273.254 272.515 273.254C272.157 273.254 271.841 273.334 271.568 273.495C271.304 273.655 271.101 273.862 270.96 274.117C270.818 274.372 270.714 274.631 270.648 274.895C270.592 275.159 270.564 275.418 270.564 275.673C270.564 276.785 270.941 277.511 271.695 277.851C271.94 277.964 272.497 278.091 273.364 278.233C274.241 278.365 274.948 278.572 275.486 278.855C276.24 279.242 276.862 279.741 277.352 280.354C277.843 280.967 278.182 281.585 278.371 282.207C278.559 282.829 278.654 283.475 278.654 284.145C278.654 285.974 278.088 287.445 276.956 288.557C275.825 289.67 274.345 290.226 272.515 290.226ZM294.023 286.492V289.887C292.335 290.113 290.84 290.226 289.539 290.226C287.606 290.226 286.046 289.745 284.858 288.784C283.679 287.812 282.882 286.502 282.467 284.852C282.175 283.702 282.029 282.099 282.029 280.043C282.029 277.988 282.175 276.385 282.467 275.234C282.882 273.575 283.665 272.264 284.815 271.303C285.966 270.341 287.493 269.86 289.398 269.86C290.84 269.86 292.311 269.945 293.81 270.114V273.509C291.925 273.339 290.468 273.254 289.44 273.254C287.507 273.254 286.329 274.339 285.904 276.507C285.735 277.394 285.65 278.572 285.65 280.043C285.65 281.514 285.735 282.693 285.904 283.579C286.329 285.748 287.54 286.832 289.539 286.832C290.623 286.832 292.118 286.719 294.023 286.492Z" fill="#E45403"/>
<defs>
<clipPath id="clip0_269_1166">
<rect width="42" height="60" fill="white" transform="translate(85 195)"/>
</clipPath>
</defs>
</svg>
