<svg width="564" height="724" viewBox="0 0 564 724" fill="none" xmlns="http://www.w3.org/2000/svg">
<rect x="2" y="2" width="560" height="720" fill="#FFE5D7" stroke="#E45403" stroke-width="4"/>
<path d="M282 522L122 721.5H442L282 522Z" fill="#E45403"/>
<g clip-path="url(#clip0_269_1142)">
<path d="M132.284 489.859L65.635 472L38.7178 572.456L78.7715 556.271L105.367 590.315L132.284 489.859Z" fill="#E45403" stroke="#FFE5D7" stroke-width="2"/>
<path d="M176.649 472.002L110 489.86L136.917 590.317L163.512 556.273L203.566 572.458L176.649 472.002Z" fill="#E45403" stroke="#FFE5D7" stroke-width="2"/>
<path d="M135.576 374.202L157.864 358.955L161.447 385.721L161.586 386.761L162.618 386.572L189.181 381.708L181.568 407.617L181.272 408.624L182.291 408.871L208.537 415.232L191.043 435.804L190.363 436.604L191.194 437.244L212.583 453.73L188.234 465.408L187.288 465.862L187.786 466.785L200.621 490.545L173.627 491.311L172.578 491.34L172.658 492.387L174.719 519.313L149.747 509.032L148.777 508.633L148.424 509.621L139.355 535.058L120.724 515.509L120 514.75L119.276 515.509L100.645 535.058L91.5754 509.621L91.223 508.633L90.2528 509.032L65.2812 519.313L67.3419 492.387L67.422 491.34L66.3731 491.311L39.3791 490.545L52.2135 466.785L52.7121 465.862L51.7661 465.408L27.417 453.73L48.8059 437.244L49.6369 436.604L48.9572 435.804L31.4633 415.232L57.7084 408.871L58.7281 408.624L58.4323 407.617L50.8184 381.708L77.3817 386.572L78.4137 386.761L78.553 385.721L82.1356 358.955L104.424 374.202L105.29 374.795L105.84 373.901L120 350.906L134.16 373.901L134.71 374.795L135.576 374.202Z" fill="#E45403" stroke="#FFE5D7" stroke-width="2"/>
<path d="M120 505C153.689 505 181 477.689 181 444C181 410.311 153.689 383 120 383C86.3106 383 59 410.311 59 444C59 477.689 86.3106 505 120 505Z" stroke="#FFE5D7" stroke-width="2"/>
<path d="M120 492C146.51 492 168 470.51 168 444C168 417.49 146.51 396 120 396C93.4903 396 72 417.49 72 444C72 470.51 93.4903 492 120 492Z" stroke="#FFE5D7" stroke-width="2"/>
<path d="M149.933 420.659L80.3867 439.294C70.7843 441.867 65.0858 451.737 67.6587 461.34C70.2317 470.942 80.1018 476.641 89.7041 474.068L159.251 455.433C168.853 452.86 174.552 442.99 171.979 433.387C169.406 423.785 159.536 418.086 149.933 420.659Z" fill="#FFE5D7"/>
<path d="M80.3579 465.183L77.4632 465.959L73.1973 450.038L76.0806 449.266L81.2913 457.54L81.4044 457.51L78.9866 448.487L81.8813 447.711L86.1472 463.632L83.2525 464.408L78.0532 456.13L77.9401 456.16L80.3579 465.183ZM92.6658 461.885L90.6783 454.468L87.8967 455.213L87.1695 452.499L92.8458 450.978L95.5604 461.11L92.6658 461.885ZM87.8489 446.803C88.1248 446.325 88.5568 446.007 89.1447 445.85C89.7327 445.692 90.2619 445.753 90.7322 446.031C91.2081 446.299 91.5248 446.727 91.6824 447.315C91.8399 447.903 91.7808 448.436 91.5048 448.914C91.2344 449.382 90.8053 449.695 90.2173 449.853C89.6293 450.01 89.0974 449.955 88.6215 449.687C88.1511 449.409 87.8372 448.976 87.6796 448.388C87.5221 447.8 87.5785 447.271 87.8489 446.803ZM102.897 446.54C103.703 446.324 104.464 446.552 105.177 447.226C105.439 447.479 105.668 447.789 105.863 448.157C106.066 448.523 106.207 448.836 106.285 449.098C106.369 449.351 106.474 449.714 106.601 450.189L108.592 457.618L105.697 458.394L103.707 450.965C103.543 450.354 103.377 449.958 103.207 449.778C102.995 449.56 102.776 449.481 102.55 449.542C102.324 449.602 102.173 449.78 102.099 450.075C102.042 450.316 102.096 450.742 102.259 451.352L104.25 458.781L101.355 459.557L98.2529 447.978L101.148 447.203L101.335 447.904L101.415 447.883C101.553 447.555 101.755 447.27 102.022 447.029C102.289 446.788 102.58 446.625 102.897 446.54ZM120.903 454.331C120.127 454.661 119.418 454.911 118.777 455.083C118.174 455.244 117.595 455.282 117.039 455.197C116.49 455.11 116.011 454.919 115.601 454.625C115.283 454.403 115.012 454.116 114.788 453.764C114.565 453.412 114.411 453.11 114.327 452.857C114.244 452.605 114.141 452.253 114.02 451.801L112.753 447.074L109.859 447.85L109.113 445.068L112.008 444.293L111.232 441.398L114.127 440.622L114.903 443.517L117.797 442.741L118.543 445.523L115.648 446.299L116.884 450.912C117.034 451.47 117.201 451.869 117.387 452.11C117.58 452.349 117.839 452.425 118.163 452.339C118.699 452.195 119.369 451.955 120.176 451.618L120.903 454.331ZM124.991 440.62C125.866 440.386 126.67 440.4 127.403 440.664C128.134 440.921 128.721 441.346 129.162 441.938C129.377 442.228 129.574 442.583 129.751 443.005C129.936 443.424 130.078 443.802 130.176 444.139C130.28 444.467 130.412 444.928 130.572 445.524L130.935 446.88L125.881 448.235C126.046 448.853 126.219 449.271 126.399 449.49C126.702 449.837 127.132 449.935 127.69 449.786C128.512 449.566 129.622 449.188 131.022 448.651L131.746 451.353C130.416 451.879 129.307 452.261 128.417 452.5C127.483 452.75 126.636 452.743 125.878 452.477C125.12 452.212 124.504 451.767 124.03 451.142C123.706 450.72 123.446 450.245 123.247 449.716C123.049 449.187 122.837 448.501 122.611 447.657C122.379 446.79 122.21 446.071 122.106 445.501C122.007 444.922 121.985 444.37 122.038 443.847C122.107 443.109 122.394 442.447 122.899 441.859C123.412 441.269 124.109 440.856 124.991 440.62ZM125.719 443.334C125.591 443.368 125.478 443.414 125.38 443.473C125.281 443.524 125.204 443.597 125.148 443.692C125.099 443.778 125.056 443.859 125.019 443.933C124.98 444 124.96 444.106 124.959 444.252C124.963 444.388 124.964 444.497 124.961 444.579C124.966 444.658 124.986 444.79 125.02 444.975C125.058 445.151 125.088 445.276 125.108 445.351C125.126 445.419 125.158 445.552 125.203 445.75L127.374 445.169C127.151 444.396 126.953 443.9 126.781 443.679C126.525 443.328 126.171 443.212 125.719 443.334ZM137.65 437.228C138.457 437.012 139.217 437.241 139.93 437.914C140.192 438.167 140.421 438.477 140.616 438.845C140.819 439.211 140.96 439.524 141.038 439.786C141.122 440.039 141.227 440.402 141.355 440.877L143.345 448.306L140.451 449.082L138.46 441.653C138.296 441.042 138.13 440.646 137.96 440.466C137.748 440.248 137.529 440.169 137.303 440.23C137.077 440.29 136.927 440.468 136.852 440.763C136.796 441.004 136.849 441.43 137.013 442.04L139.003 449.469L136.109 450.245L133.006 438.666L135.901 437.891L136.089 438.592L136.168 438.571C136.306 438.243 136.509 437.958 136.775 437.717C137.042 437.476 137.334 437.313 137.65 437.228ZM146.905 434.748C147.78 434.514 148.491 434.651 149.039 435.158L149.129 435.134L147.769 430.057L150.664 429.281L154.929 445.202L152.035 445.978L151.838 445.243L151.747 445.267C151.527 445.98 150.979 446.454 150.105 446.689C149.532 446.842 148.96 446.745 148.39 446.397C147.826 446.039 147.329 445.465 146.899 444.675C146.559 444.039 146.186 442.964 145.78 441.449C145.374 439.933 145.159 438.815 145.136 438.095C145.113 437.196 145.258 436.454 145.569 435.87C145.887 435.275 146.332 434.902 146.905 434.748ZM149.298 437.391C149.1 437.194 148.902 437.122 148.706 437.174C148.51 437.227 148.376 437.388 148.303 437.658C148.228 437.92 148.206 438.233 148.239 438.596C148.273 439.023 148.418 439.716 148.674 440.673C148.931 441.63 149.151 442.302 149.336 442.689C149.489 443.02 149.665 443.284 149.863 443.481C150.059 443.671 150.256 443.74 150.452 443.687C150.648 443.635 150.783 443.477 150.858 443.215C150.931 442.944 150.951 442.628 150.919 442.265C150.885 441.838 150.74 441.146 150.484 440.188C150.227 439.231 150.007 438.559 149.822 438.172C149.669 437.841 149.494 437.581 149.298 437.391ZM157.986 432.3C158.457 431.826 159.043 431.496 159.744 431.308C160.446 431.12 161.115 431.114 161.752 431.291C162.394 431.458 162.969 431.777 163.474 432.248C163.898 432.651 164.247 433.172 164.523 433.809C164.797 434.438 165.064 435.239 165.324 436.212C165.585 437.184 165.755 438.015 165.835 438.705C165.913 439.387 165.869 440.008 165.704 440.57C165.501 441.23 165.165 441.797 164.694 442.27C164.228 442.735 163.645 443.06 162.944 443.248C162.243 443.436 161.571 443.447 160.928 443.279C160.291 443.103 159.72 442.779 159.214 442.309C158.791 441.905 158.442 441.388 158.168 440.759C157.893 440.122 157.625 439.317 157.364 438.345C157.103 437.372 156.934 436.545 156.857 435.863C156.777 435.173 156.819 434.548 156.984 433.987C157.187 433.326 157.521 432.764 157.986 432.3ZM161.54 434.572C161.212 434.102 160.856 433.919 160.472 434.022C160.087 434.125 159.87 434.461 159.821 435.032C159.782 435.487 159.927 436.333 160.259 437.569C160.59 438.805 160.886 439.61 161.148 439.985C161.476 440.454 161.832 440.638 162.217 440.535C162.601 440.432 162.818 440.095 162.867 439.524C162.907 439.069 162.761 438.224 162.43 436.987C162.098 435.751 161.802 434.946 161.54 434.572Z" fill="#E45403"/>
</g>
<g clip-path="url(#clip1_269_1142)">
<path d="M554 575H456V715H554V575Z" fill="#E45403"/>
<path d="M547 597.75H463V681.75H547V597.75Z" fill="#FFE5D7"/>
<path d="M464.992 579.328H472.859V581.786H467.614V585.269H471.548V587.727H467.614V591.292H472.859V593.75H464.992V579.328ZM479.47 591.527C480.324 588.386 481.031 584.32 481.591 579.328H484.244C483.554 585.269 482.622 590.076 481.447 593.75H477.391C476.217 590.076 475.285 585.269 474.595 579.328H477.248C477.815 584.347 478.521 588.413 479.368 591.527H479.47ZM485.98 579.328H493.846V581.786H488.602V585.269H492.535V587.727H488.602V591.292H493.846V593.75H485.98V579.328ZM499.096 581.786V585.965H499.731C500.318 585.965 500.745 585.938 501.011 585.883C501.469 585.788 501.837 585.559 502.117 585.197C502.397 584.835 502.537 584.395 502.537 583.876C502.537 583.357 502.397 582.916 502.117 582.554C501.837 582.193 501.469 581.964 501.011 581.868C500.738 581.814 500.311 581.786 499.731 581.786H499.096ZM496.474 579.328H499.71C500.721 579.328 501.441 579.379 501.872 579.482C502.841 579.714 503.63 580.222 504.238 581.008C504.852 581.786 505.16 582.742 505.16 583.876C505.16 584.729 504.979 585.491 504.617 586.16C504.262 586.822 503.777 587.348 503.162 587.737L505.416 593.75H502.63L500.724 588.413C500.52 588.42 500.181 588.424 499.71 588.424H499.096V593.75H496.474V579.328ZM510.952 585.033C511.962 582.712 512.645 580.81 513 579.328H515.776C515.244 580.96 514.697 582.438 514.137 583.763C513.577 585.081 512.936 586.307 512.212 587.44V593.75H509.59V587.44C508.866 586.307 508.224 585.081 507.664 583.763C507.104 582.438 506.558 580.96 506.025 579.328H508.801C508.855 579.581 508.92 579.844 508.995 580.117C509.077 580.39 509.173 580.687 509.282 581.008C509.398 581.329 509.494 581.602 509.569 581.827C509.651 582.046 509.767 582.346 509.917 582.729C510.068 583.104 510.17 583.367 510.225 583.517C510.286 583.661 510.399 583.937 510.563 584.347C510.733 584.75 510.829 584.979 510.849 585.033H510.952ZM519.418 583.896C519.315 584.456 519.264 585.337 519.264 586.539C519.264 587.741 519.315 588.622 519.418 589.182C519.54 589.844 519.766 590.39 520.094 590.82C520.428 591.244 520.862 591.455 521.394 591.455C521.927 591.455 522.357 591.244 522.685 590.82C523.02 590.39 523.248 589.844 523.371 589.182C523.474 588.615 523.525 587.734 523.525 586.539C523.525 585.337 523.474 584.456 523.371 583.896C523.248 583.234 523.02 582.691 522.685 582.268C522.357 581.837 521.927 581.622 521.394 581.622C520.862 581.622 520.428 581.837 520.094 582.268C519.766 582.691 519.54 583.234 519.418 583.896ZM516.929 590.114C516.737 589.356 516.642 588.164 516.642 586.539C516.642 584.914 516.737 583.722 516.929 582.964C517.202 581.858 517.717 580.95 518.475 580.24C519.233 579.523 520.206 579.164 521.394 579.164C522.583 579.164 523.556 579.523 524.314 580.24C525.072 580.95 525.587 581.858 525.86 582.964C526.052 583.722 526.147 584.914 526.147 586.539C526.147 588.164 526.052 589.356 525.86 590.114C525.587 591.22 525.072 592.131 524.314 592.848C523.556 593.559 522.583 593.914 521.394 593.914C520.206 593.914 519.233 593.559 518.475 592.848C517.717 592.131 517.202 591.22 516.929 590.114ZM530.577 593.75H527.955V579.328H530.567L533.097 587.502H533.199V579.328H535.821V593.75H533.199L530.68 585.576H530.577V593.75ZM538.449 579.328H546.315V581.786H541.071V585.269H545.004V587.727H541.071V591.292H546.315V593.75H538.449V579.328Z" fill="#FFE5D7"/>
<path d="M487.814 697.656H495.025V699.909H490.218V703.102H493.824V705.355H490.218V708.623H495.025V710.876H487.814V697.656ZM500.851 711.026C499.825 711.026 498.667 710.926 497.377 710.726V708.435C498.886 708.66 500.044 708.773 500.851 708.773C501.966 708.773 502.523 708.178 502.523 706.989C502.523 706.657 502.441 706.344 502.279 706.05C502.122 705.749 501.9 705.543 501.612 705.43C501.43 705.361 501.18 705.305 500.861 705.261C500.542 705.217 500.213 705.155 499.875 705.073C499.543 704.986 499.224 704.851 498.917 704.67C497.74 703.969 497.152 702.861 497.152 701.346C497.152 700.263 497.496 699.352 498.185 698.614C498.88 697.875 499.769 697.506 500.851 697.506C501.697 697.506 502.855 697.584 504.326 697.74V700.003C502.804 699.84 501.646 699.759 500.851 699.759C500.614 699.759 500.404 699.812 500.222 699.919C500.047 700.025 499.913 700.163 499.819 700.332C499.725 700.501 499.656 700.673 499.612 700.848C499.575 701.024 499.556 701.196 499.556 701.365C499.556 702.103 499.806 702.585 500.307 702.811C500.47 702.886 500.839 702.97 501.415 703.064C501.997 703.152 502.466 703.289 502.823 703.477C503.324 703.734 503.737 704.066 504.063 704.473C504.388 704.879 504.613 705.289 504.739 705.703C504.864 706.116 504.926 706.544 504.926 706.989C504.926 708.203 504.551 709.18 503.8 709.918C503.049 710.657 502.066 711.026 500.851 711.026ZM509.457 699.909V703.74H510.039C510.577 703.74 510.968 703.715 511.213 703.665C511.632 703.577 511.97 703.368 512.227 703.036C512.483 702.704 512.612 702.3 512.612 701.825C512.612 701.349 512.483 700.945 512.227 700.614C511.97 700.282 511.632 700.072 511.213 699.984C510.962 699.934 510.571 699.909 510.039 699.909H509.457ZM507.053 697.656H510.02C510.947 697.656 511.607 697.703 512.001 697.797C512.89 698.01 513.613 698.476 514.17 699.196C514.734 699.909 515.015 700.786 515.015 701.825C515.015 702.607 514.849 703.305 514.518 703.919C514.192 704.526 513.748 705.008 513.184 705.364L515.25 710.876H512.696L510.95 705.984C510.762 705.99 510.452 705.994 510.02 705.994H509.457V710.876H507.053V697.656ZM519.489 703.102C519.959 703.102 520.265 703.083 520.409 703.045C520.747 702.964 521.017 702.789 521.217 702.52C521.423 702.244 521.527 701.906 521.527 701.506C521.527 701.111 521.423 700.776 521.217 700.501C521.01 700.225 520.741 700.05 520.409 699.975C520.209 699.931 519.902 699.909 519.489 699.909H519.076V703.102H519.489ZM522.428 704.041C523.073 704.228 523.574 704.613 523.93 705.195C524.293 705.771 524.475 706.463 524.475 707.271C524.475 708.147 524.243 708.898 523.78 709.524C523.323 710.144 522.728 710.544 521.996 710.726C521.596 710.826 520.929 710.876 519.996 710.876H516.672V697.656H519.489C520.297 697.656 520.873 697.697 521.217 697.778C521.987 697.959 522.616 698.357 523.104 698.97C523.592 699.584 523.836 700.335 523.836 701.224C523.836 702.545 523.367 703.452 522.428 703.947V704.041ZM519.076 705.355V708.623H520.006C520.569 708.623 520.945 708.598 521.132 708.547C521.445 708.466 521.696 708.288 521.883 708.012C522.071 707.731 522.165 707.389 522.165 706.989C522.165 706.588 522.071 706.247 521.883 705.965C521.696 705.684 521.445 705.505 521.132 705.43C520.919 705.38 520.544 705.355 520.006 705.355H519.076Z" fill="#FFE5D7"/>
<path d="M470.622 600.891V602.017H469.12V607.501H467.918V602.017H466.416V600.891H470.622ZM472.427 607.501H471.226V600.891H472.427L473.305 602.947H473.357L474.23 600.891H475.432V607.501H474.23V603.294H474.183L473.587 604.496H473.071L472.474 603.276H472.427V607.501Z" fill="#E45403"/>
<path d="M477.223 613.307L511.897 601.646L515.541 612.482L492.425 620.256L497.587 635.607L514.925 629.777L518.569 640.612L501.231 646.443L506.515 662.155L529.631 654.381L533.275 665.217L498.601 676.878L477.223 613.307Z" fill="#E45403"/>
<path d="M467.941 691.98V693.209C467.329 693.291 466.788 693.332 466.317 693.332C465.617 693.332 465.052 693.158 464.622 692.81C464.195 692.458 463.907 691.983 463.756 691.386C463.651 690.969 463.598 690.389 463.598 689.645C463.598 688.9 463.651 688.32 463.756 687.903C463.907 687.302 464.19 686.828 464.607 686.479C465.023 686.131 465.576 685.957 466.266 685.957C466.788 685.957 467.321 685.988 467.864 686.049V687.278C467.181 687.217 466.653 687.186 466.281 687.186C465.581 687.186 465.155 687.579 465.001 688.364C464.939 688.685 464.909 689.112 464.909 689.645C464.909 690.177 464.939 690.604 465.001 690.925C465.155 691.71 465.593 692.103 466.317 692.103C466.71 692.103 467.251 692.062 467.941 691.98ZM470.232 688.323C470.181 688.603 470.156 689.044 470.156 689.645C470.156 690.245 470.181 690.686 470.232 690.966C470.294 691.297 470.407 691.57 470.57 691.785C470.738 691.997 470.955 692.103 471.221 692.103C471.487 692.103 471.702 691.997 471.866 691.785C472.034 691.57 472.148 691.297 472.209 690.966C472.261 690.682 472.286 690.242 472.286 689.645C472.286 689.044 472.261 688.603 472.209 688.323C472.148 687.992 472.034 687.721 471.866 687.509C471.702 687.294 471.487 687.186 471.221 687.186C470.955 687.186 470.738 687.294 470.57 687.509C470.407 687.721 470.294 687.992 470.232 688.323ZM468.988 691.432C468.892 691.053 468.845 690.457 468.845 689.645C468.845 688.832 468.892 688.236 468.988 687.857C469.125 687.304 469.382 686.85 469.761 686.495C470.14 686.136 470.627 685.957 471.221 685.957C471.815 685.957 472.302 686.136 472.681 686.495C473.059 686.85 473.317 687.304 473.454 687.857C473.549 688.236 473.597 688.832 473.597 689.645C473.597 690.457 473.549 691.053 473.454 691.432C473.317 691.985 473.059 692.441 472.681 692.799C472.302 693.154 471.815 693.332 471.221 693.332C470.627 693.332 470.14 693.154 469.761 692.799C469.382 692.441 469.125 691.985 468.988 691.432ZM475.812 693.25H474.501V686.039H475.807L477.072 690.126H477.123V686.039H478.434V693.25H477.123L475.863 689.163H475.812V693.25ZM484.009 686.039V687.268H482.37V693.25H481.059V687.268H479.42V686.039H484.009ZM484.995 686.039H488.928V687.268H486.306V689.009H488.273V690.239H486.306V692.021H488.928V693.25H484.995V686.039ZM491.553 693.25H490.242V686.039H491.548L492.813 690.126H492.864V686.039H494.175V693.25H492.864L491.604 689.163H491.553V693.25ZM499.75 686.039V687.268H498.111V693.25H496.8V687.268H495.161V686.039H499.75ZM507.294 687.268V689.358H507.611C507.905 689.358 508.118 689.344 508.251 689.317C508.48 689.269 508.664 689.155 508.804 688.974C508.944 688.793 509.014 688.572 509.014 688.313C509.014 688.053 508.944 687.833 508.804 687.652C508.664 687.471 508.48 687.357 508.251 687.309C508.115 687.282 507.901 687.268 507.611 687.268H507.294ZM505.983 686.039H507.601C508.106 686.039 508.466 686.065 508.682 686.116C509.166 686.232 509.561 686.486 509.865 686.879C510.172 687.268 510.326 687.746 510.326 688.313C510.326 688.74 510.235 689.12 510.054 689.455C509.877 689.786 509.634 690.049 509.327 690.244L510.454 693.25H509.061L508.108 690.582C508.006 690.585 507.837 690.587 507.601 690.587H507.294V693.25H505.983V686.039ZM513.939 690.628C513.741 689.341 513.502 688.181 513.222 687.15H513.17C512.894 688.171 512.655 689.33 512.453 690.628H513.939ZM512.182 686.039H514.21C514.797 687.876 515.263 690.28 515.608 693.25H514.282C514.241 692.779 514.185 692.314 514.113 691.857H512.279C512.208 692.314 512.151 692.779 512.11 693.25H510.784C511.129 690.28 511.595 687.876 512.182 686.039ZM520.737 686.039V687.268H519.099V693.25H517.787V687.268H516.149V686.039H520.737ZM521.723 686.039H525.657V687.268H523.034V689.009H525.001V690.239H523.034V692.021H525.657V693.25H521.723V686.039ZM528.414 686.039C529.514 686.039 530.314 686.444 530.816 687.253C531.011 687.56 531.142 687.908 531.211 688.298C531.279 688.687 531.313 689.136 531.313 689.645C531.313 690.153 531.279 690.602 531.211 690.991C531.142 691.381 531.011 691.729 530.816 692.036C530.314 692.845 529.514 693.25 528.414 693.25H526.642V686.039H528.414ZM529.71 691.365C529.905 691.038 530.002 690.464 530.002 689.645C530.002 688.825 529.905 688.251 529.71 687.924C529.454 687.487 529.058 687.268 528.522 687.268H527.953V692.021H528.522C529.058 692.021 529.454 691.802 529.71 691.365ZM539 689.009C539.256 689.009 539.424 688.999 539.502 688.979C539.687 688.934 539.833 688.839 539.943 688.692C540.055 688.542 540.112 688.357 540.112 688.139C540.112 687.924 540.055 687.741 539.943 687.591C539.83 687.441 539.683 687.345 539.502 687.304C539.393 687.28 539.226 687.268 539 687.268H538.775V689.009H539ZM540.603 689.522C540.955 689.624 541.228 689.834 541.423 690.152C541.621 690.466 541.72 690.843 541.72 691.283C541.72 691.761 541.594 692.171 541.341 692.513C541.092 692.851 540.767 693.069 540.368 693.168C540.149 693.223 539.786 693.25 539.277 693.25H537.464V686.039H539C539.441 686.039 539.755 686.061 539.943 686.106C540.363 686.205 540.706 686.421 540.972 686.756C541.238 687.091 541.372 687.5 541.372 687.985C541.372 688.706 541.116 689.201 540.603 689.47V689.522ZM538.775 690.239V692.021H539.282C539.589 692.021 539.794 692.007 539.897 691.98C540.067 691.936 540.204 691.838 540.306 691.688C540.409 691.534 540.46 691.348 540.46 691.13C540.46 690.911 540.409 690.725 540.306 690.571C540.204 690.418 540.067 690.321 539.897 690.28C539.781 690.252 539.576 690.239 539.282 690.239H538.775ZM544.703 688.892C545.208 687.731 545.55 686.78 545.727 686.039H547.115C546.849 686.855 546.576 687.594 546.296 688.257C546.016 688.916 545.695 689.528 545.333 690.095V693.25H544.022V690.095C543.66 689.528 543.339 688.916 543.059 688.257C542.779 687.594 542.506 686.855 542.24 686.039H543.628C543.655 686.165 543.687 686.297 543.725 686.433C543.766 686.57 543.814 686.718 543.868 686.879C543.926 687.039 543.974 687.176 544.012 687.289C544.053 687.398 544.111 687.548 544.186 687.739C544.261 687.927 544.312 688.059 544.339 688.134C544.37 688.205 544.427 688.344 544.508 688.549C544.594 688.75 544.642 688.864 544.652 688.892H544.703Z" fill="#FFE5D7"/>
</g>
<defs>
<clipPath id="clip0_269_1142">
<rect width="190" height="244" fill="white" transform="translate(25 349)"/>
</clipPath>
<clipPath id="clip1_269_1142">
<rect width="98" height="140" fill="white" transform="translate(456 575)"/>
</clipPath>
</defs>
</svg>
