<svg width="271" height="439" viewBox="0 0 271 439" fill="none" xmlns="http://www.w3.org/2000/svg">
<path d="M138.388 3L237.057 71.2959L168.761 169.965L70.0918 101.669L138.388 3Z" fill="#FFE5D7"/>
<path d="M70.0918 101.669L168.761 169.965L100.465 268.635L1.7959 200.339L70.0918 101.669Z" fill="#FFE5D7"/>
<path d="M168.761 169.965L267.431 238.261L199.135 336.931L100.465 268.635L168.761 169.965Z" fill="#FFE5D7"/>
<path d="M100.465 268.635L199.135 336.931L130.839 435.6L32.1695 367.304L100.465 268.635Z" fill="#FFE5D7"/>
<path d="M168.761 169.965L237.057 71.2959L138.388 3L70.0918 101.669M168.761 169.965L70.0918 101.669M168.761 169.965L100.465 268.635M168.761 169.965L267.431 238.261L199.135 336.931M70.0918 101.669L1.7959 200.339L100.465 268.635M100.465 268.635L199.135 336.931M100.465 268.635L32.1695 367.304L130.839 435.6L199.135 336.931" stroke="#E45403" stroke-width="4"/>
</svg>
