<svg width="336" height="337" viewBox="0 0 336 337" fill="none" xmlns="http://www.w3.org/2000/svg">
<path d="M131.649 3L233.11 67.0743L169.036 168.536L67.5743 104.462L131.649 3Z" fill="#FFE5D7"/>
<path d="M67.5743 104.462L169.036 168.536L104.962 269.998L3.5 205.923L67.5743 104.462Z" fill="#FFE5D7"/>
<path d="M169.036 168.536L270.498 232.61L206.423 334.072L104.962 269.998L169.036 168.536Z" fill="#FFE5D7"/>
<path d="M233.11 67.0743L334.572 131.149L270.498 232.61L169.036 168.536L233.11 67.0743Z" fill="#FFE5D7"/>
<path d="M233.11 67.0743L131.649 3L67.5743 104.462M233.11 67.0743L169.036 168.536M233.11 67.0743L334.572 131.149L270.498 232.61M169.036 168.536L67.5743 104.462M169.036 168.536L104.962 269.998M169.036 168.536L270.498 232.61M67.5743 104.462L3.5 205.923L104.962 269.998M104.962 269.998L206.423 334.072L270.498 232.61" stroke="#E45403" stroke-width="4"/>
</svg>
