<svg width="378" height="277" viewBox="0 0 378 277" fill="none" xmlns="http://www.w3.org/2000/svg">
<path d="M2.42285 155.57L121.224 138.647L138.147 257.447L19.3459 274.37L2.42285 155.57Z" fill="#FFE5D7"/>
<path d="M121.224 138.647L240.024 121.724L256.947 240.524L138.147 257.447L121.224 138.647Z" fill="#FFE5D7"/>
<path d="M240.024 121.724L358.825 104.801L375.748 223.601L256.947 240.524L240.024 121.724Z" fill="#FFE5D7"/>
<path d="M104.301 19.8459L223.101 2.92285L240.024 121.724L121.224 138.647L104.301 19.8459Z" fill="#FFE5D7"/>
<path d="M121.224 138.647L2.42285 155.57L19.3459 274.37L138.147 257.447M121.224 138.647L138.147 257.447M121.224 138.647L240.024 121.724M121.224 138.647L104.301 19.8459L223.101 2.92285L240.024 121.724M138.147 257.447L256.947 240.524M240.024 121.724L256.947 240.524M240.024 121.724L358.825 104.801L375.748 223.601L256.947 240.524" stroke="#E45403" stroke-width="4"/>
</svg>
