<svg width="335" height="334" viewBox="0 0 335 334" fill="none" xmlns="http://www.w3.org/2000/svg">
<path d="M3.5 123L107.423 63L167.423 166.923L63.5 226.923L3.5 123Z" fill="#FFE5D7"/>
<path d="M63.5 226.923L167.423 166.923L227.423 270.846L123.5 330.846L63.5 226.923Z" fill="#FFE5D7"/>
<path d="M167.423 166.923L271.346 106.923L331.346 210.846L227.423 270.846L167.423 166.923Z" fill="#FFE5D7"/>
<path d="M107.423 63L211.346 3L271.346 106.923L167.423 166.923L107.423 63Z" fill="#FFE5D7"/>
<path d="M107.423 63L3.5 123L63.5 226.923M107.423 63L167.423 166.923M107.423 63L211.346 3L271.346 106.923M167.423 166.923L63.5 226.923M167.423 166.923L227.423 270.846M167.423 166.923L271.346 106.923M63.5 226.923L123.5 330.846L227.423 270.846M227.423 270.846L331.346 210.846L271.346 106.923" stroke="#E45403" stroke-width="4"/>
</svg>
