<svg width="378" height="393" viewBox="0 0 378 393" fill="none" xmlns="http://www.w3.org/2000/svg">
<path d="M3.13672 286.043L107.269 226.406L166.905 330.538L62.7737 390.174L3.13672 286.043Z" fill="#FFE5D7"/>
<path d="M107.269 226.406L211.4 166.769L271.037 270.901L166.905 330.538L107.269 226.406Z" fill="#FFE5D7"/>
<path d="M211.4 166.769L315.532 107.132L375.169 211.264L271.037 270.901L211.4 166.769Z" fill="#FFE5D7"/>
<path d="M151.763 62.6369L255.895 3L315.532 107.132L211.4 166.769L151.763 62.6369Z" fill="#FFE5D7"/>
<path d="M107.269 226.406L3.13672 286.043L62.7737 390.174L166.905 330.538M107.269 226.406L166.905 330.538M107.269 226.406L211.4 166.769M166.905 330.538L271.037 270.901M211.4 166.769L271.037 270.901M211.4 166.769L315.532 107.132M211.4 166.769L151.763 62.6369L255.895 3L315.532 107.132M271.037 270.901L375.169 211.264L315.532 107.132" stroke="#E45403" stroke-width="4"/>
</svg>
