<svg width="493" height="162" viewBox="0 0 493 162" fill="none" xmlns="http://www.w3.org/2000/svg">
<path d="M11.7534 3L131.396 12.2534L122.143 131.896L2.5 122.643L11.7534 3Z" fill="#FFE5D7"/>
<path d="M131.396 12.2534L251.039 21.5068L241.785 141.149L122.143 131.896L131.396 12.2534Z" fill="#FFE5D7"/>
<path d="M251.039 21.5068L370.681 30.7601L361.428 150.403L241.785 141.149L251.039 21.5068Z" fill="#FFE5D7"/>
<path d="M370.681 30.7601L490.324 40.0135L481.071 159.656L361.428 150.403L370.681 30.7601Z" fill="#FFE5D7"/>
<path d="M131.396 12.2534L11.7534 3L2.5 122.643L122.143 131.896M131.396 12.2534L122.143 131.896M131.396 12.2534L251.039 21.5068M122.143 131.896L241.785 141.149M251.039 21.5068L241.785 141.149M251.039 21.5068L370.681 30.7601M241.785 141.149L361.428 150.403M370.681 30.7601L361.428 150.403M370.681 30.7601L490.324 40.0135L481.071 159.656L361.428 150.403" stroke="#E45403" stroke-width="4"/>
</svg>
