<svg width="333" height="379" viewBox="0 0 333 379" fill="none" xmlns="http://www.w3.org/2000/svg">
<path d="M282.501 60.9788L224.522 166.043L119.458 108.064L177.437 3L282.501 60.9788Z" fill="#FFE5D7"/>
<path d="M224.522 166.043L166.543 271.107L61.4788 213.128L119.458 108.064L224.522 166.043Z" fill="#FFE5D7"/>
<path d="M166.543 271.107L108.564 376.171L3.5 318.192L61.4788 213.128L166.543 271.107Z" fill="#FFE5D7"/>
<path d="M329.586 224.022L271.607 329.086L166.543 271.107L224.522 166.043L329.586 224.022Z" fill="#FFE5D7"/>
<path d="M224.522 166.043L282.501 60.9788L177.437 3L119.458 108.064M224.522 166.043L119.458 108.064M224.522 166.043L166.543 271.107M224.522 166.043L329.586 224.022L271.607 329.086L166.543 271.107M119.458 108.064L61.4788 213.128M166.543 271.107L61.4788 213.128M166.543 271.107L108.564 376.171L3.5 318.192L61.4788 213.128" stroke="#E45403" stroke-width="4"/>
</svg>
